<svg xmlns="http://www.w3.org/2000/svg" xmlns:xlink="http://www.w3.org/1999/xlink">
	<defs>
		<symbol xmlns="http://www.w3.org/2000/svg" id="search" viewBox="0 0 24 24" fill="none">
			<path
				d="M10.2 3.59961C11.4544 3.5994 12.6829 3.95666 13.7415 4.62955C14.8001 5.30245 15.6451 6.26309 16.1774 7.39896C16.7097 8.53482 16.9073 9.79885 16.747 11.043C16.5867 12.2871 16.0752 13.4598 15.2724 14.4236L20.2248 19.3748C20.3311 19.4806 20.3939 19.6224 20.4008 19.7723C20.4077 19.9221 20.3583 20.0691 20.2622 20.1843C20.1662 20.2995 20.0304 20.3745 19.8818 20.3946C19.7331 20.4147 19.5824 20.3784 19.4592 20.2928L19.3752 20.2244L14.424 15.272C13.6094 15.9501 12.6435 16.4221 11.608 16.648C10.5725 16.8739 9.49777 16.847 8.4748 16.5698C7.45183 16.2925 6.51068 15.773 5.73095 15.0551C4.95122 14.3372 4.35585 13.4421 3.99519 12.4455C3.63453 11.4489 3.5192 10.38 3.65894 9.32941C3.79868 8.27878 4.18939 7.27727 4.79803 6.40957C5.40666 5.54187 6.21531 4.83351 7.15558 4.3444C8.09586 3.85529 9.14009 3.59983 10.2 3.59961ZM10.2 4.79961C8.7678 4.79961 7.39429 5.36854 6.38159 6.38123C5.36889 7.39393 4.79997 8.76744 4.79997 10.1996C4.79997 11.6318 5.36889 13.0053 6.38159 14.018C7.39429 15.0307 8.7678 15.5996 10.2 15.5996C11.6321 15.5996 13.0056 15.0307 14.0183 14.018C15.031 13.0053 15.6 11.6318 15.6 10.1996C15.6 8.76744 15.031 7.39393 14.0183 6.38123C13.0056 5.36854 11.6321 4.79961 10.2 4.79961Z"
				fill="#5E4D70" />
		</symbol>

		<symbol width="31" height="24" viewBox="0 0 31 24" fill="none"
			xmlns="http://www.w3.org/2000/svg"
			id="commission">
			<path
				d="M29.2913 14.6325C28.9191 14.3462 28.486 14.1496 28.0255 14.0578C27.5651 13.9661 27.0897 13.9819 26.6362 14.1038L21.4062 15.3063C21.5279 14.7922 21.5317 14.2574 21.4172 13.7417C21.3028 13.226 21.0731 12.7429 20.7454 12.3287C20.4177 11.9144 20.0005 11.5797 19.5251 11.3495C19.0496 11.1194 18.5282 10.9999 18 11H11.7425C11.217 10.9987 10.6964 11.1015 10.2109 11.3025C9.72539 11.5036 9.28451 11.7988 8.91375 12.1713L6.08625 15H2.5C1.96957 15 1.46086 15.2107 1.08579 15.5858C0.710714 15.9609 0.5 16.4696 0.5 17L0.5 22C0.5 22.5304 0.710714 23.0391 1.08579 23.4142C1.46086 23.7893 1.96957 24 2.5 24H15.5C15.5818 24 15.6632 23.99 15.7425 23.97L23.7425 21.97C23.7935 21.9579 23.8433 21.9411 23.8913 21.92L28.75 19.8525L28.805 19.8275C29.272 19.5942 29.6718 19.2458 29.9669 18.8152C30.2621 18.3846 30.4427 17.886 30.4918 17.3663C30.541 16.8466 30.457 16.3229 30.2478 15.8447C30.0387 15.3664 29.7112 14.9492 29.2962 14.6325H29.2913ZM2.5 17H5.5V22H2.5V17ZM27.9287 18.0263L23.1787 20.0488L15.375 22H7.5V16.4138L10.3287 13.5863C10.5138 13.3997 10.7341 13.2518 10.9768 13.1512C11.2195 13.0506 11.4798 12.9992 11.7425 13H18C18.3978 13 18.7794 13.158 19.0607 13.4393C19.342 13.7206 19.5 14.1022 19.5 14.5C19.5 14.8978 19.342 15.2794 19.0607 15.5607C18.7794 15.842 18.3978 16 18 16H14.5C14.2348 16 13.9804 16.1054 13.7929 16.2929C13.6054 16.4804 13.5 16.7348 13.5 17C13.5 17.2652 13.6054 17.5196 13.7929 17.7071C13.9804 17.8946 14.2348 18 14.5 18H18.5C18.5753 17.9998 18.6503 17.9914 18.7237 17.975L27.0987 16.0488L27.1375 16.0388C27.3932 15.9678 27.666 15.9939 27.9036 16.112C28.1412 16.2301 28.3267 16.4319 28.4245 16.6786C28.5222 16.9253 28.5253 17.1994 28.4331 17.4482C28.3409 17.697 28.1599 17.9029 27.925 18.0263H27.9287ZM21 9C21.2471 9.00028 21.4937 8.98021 21.7375 8.94C22.0117 9.75443 22.5133 10.4733 23.1832 11.0117C23.853 11.55 24.6629 11.8854 25.5173 11.978C26.3716 12.0706 27.2346 11.9167 28.0042 11.5344C28.7739 11.1521 29.4179 10.5574 29.8603 9.82063C30.3026 9.08388 30.5248 8.23588 30.5005 7.37688C30.4762 6.51787 30.2064 5.68379 29.7231 4.97325C29.2398 4.2627 28.5631 3.7054 27.7731 3.36724C26.9831 3.02909 26.1127 2.9242 25.265 3.065C25.001 2.28031 24.5256 1.58366 23.8912 1.05172C23.2568 0.519785 22.4879 0.173179 21.6692 0.0500476C20.8505 -0.0730834 20.0137 0.032034 19.2509 0.353832C18.488 0.67563 17.8288 1.20163 17.3456 1.87396C16.8625 2.54628 16.5742 3.33886 16.5125 4.16447C16.4507 4.99008 16.618 5.81672 16.9958 6.55342C17.3735 7.29011 17.9472 7.90831 18.6537 8.33996C19.3602 8.77162 20.1721 9.00001 21 9ZM28.5 7.5C28.5 7.99446 28.3534 8.4778 28.0787 8.88893C27.804 9.30005 27.4135 9.62048 26.9567 9.8097C26.4999 9.99892 25.9972 10.0484 25.5123 9.95197C25.0273 9.8555 24.5819 9.6174 24.2322 9.26777C23.8826 8.91814 23.6445 8.47268 23.548 7.98773C23.4516 7.50278 23.5011 7.00011 23.6903 6.54329C23.8795 6.08648 24.2 5.69603 24.6111 5.42133C25.0222 5.14662 25.5055 5 26 5C26.663 5 27.2989 5.26339 27.7678 5.73223C28.2366 6.20108 28.5 6.83696 28.5 7.5ZM21 2C21.5454 2.00027 22.0757 2.17888 22.5101 2.5086C22.9446 2.83832 23.2593 3.30105 23.4062 3.82625C22.8941 4.18662 22.4628 4.64992 22.1399 5.18652C21.8171 5.72312 21.6097 6.3212 21.5312 6.9425C21.3567 6.9802 21.1786 6.99948 21 7C20.337 7 19.7011 6.73661 19.2322 6.26777C18.7634 5.79893 18.5 5.16304 18.5 4.5C18.5 3.83696 18.7634 3.20108 19.2322 2.73223C19.7011 2.26339 20.337 2 21 2Z"
				fill="#667185" />
		</symbol>

		<symbol width="27" height="26" viewBox="0 0 27 26" fill="none"
			xmlns="http://www.w3.org/2000/svg" id="dashboard">
			<path
				d="M10.0002 11.5538C10.1522 11.466 10.2785 11.3397 10.3663 11.1876C10.454 11.0356 10.5002 10.8631 10.5002 10.6875V1.6875C10.4993 1.52807 10.4603 1.37116 10.3864 1.22986C10.3126 1.08857 10.206 0.966979 10.0756 0.875238C9.94522 0.783497 9.79478 0.724263 9.63684 0.702477C9.4789 0.680692 9.31804 0.696986 9.16768 0.75C6.24891 1.78302 3.79433 3.8233 2.2452 6.50409C0.696079 9.18487 0.154006 12.3303 0.716433 15.375C0.745586 15.5324 0.81212 15.6806 0.91044 15.807C1.00876 15.9333 1.13599 16.0343 1.28143 16.1012C1.4125 16.1625 1.55549 16.1941 1.70018 16.1938C1.8757 16.1938 2.04814 16.1477 2.20018 16.06L10.0002 11.5538ZM8.50018 3.2025V10.11L2.51518 13.5637C2.50018 13.375 2.50018 13.185 2.50018 13C2.50196 10.973 3.06305 8.9857 4.12168 7.25705C5.1803 5.5284 6.69541 4.12539 8.50018 3.2025ZM24.7927 6.565C24.7814 6.5425 24.7702 6.51875 24.7564 6.49625C24.7427 6.47375 24.7314 6.455 24.7177 6.435C23.5715 4.47725 21.9332 2.85335 19.9654 1.72451C17.9976 0.595668 15.7688 0.00115752 13.5002 0C13.235 0 12.9806 0.105357 12.7931 0.292893C12.6055 0.48043 12.5002 0.734784 12.5002 1V12.4788L2.64893 18.2162C2.53462 18.2825 2.43457 18.3708 2.35457 18.4759C2.27456 18.5811 2.2162 18.7011 2.18284 18.8289C2.14948 18.9568 2.14179 19.09 2.16022 19.2208C2.17864 19.3517 2.22281 19.4776 2.29018 19.5912C3.73552 22.0525 5.95069 23.9696 8.59384 25.0468C11.237 26.1241 14.1612 26.3015 16.9152 25.5517C19.6692 24.8019 22.0999 23.1666 23.8321 20.8982C25.5644 18.6297 26.502 15.8542 26.5002 13C26.5031 10.7427 25.9143 8.52396 24.7927 6.565ZM14.5002 2.045C16.0862 2.19099 17.6216 2.67945 19.0004 3.47666C20.3793 4.27387 21.5686 5.36083 22.4864 6.6625L14.5002 11.3138V2.045ZM13.5002 24C11.7545 23.9955 10.0346 23.5777 8.48137 22.7808C6.92815 21.9839 5.58571 20.8305 4.56393 19.415L13.9889 13.9263L14.0164 13.9088L23.4877 8.3925C24.2608 10.0684 24.5997 11.9119 24.4733 13.7532C24.3469 15.5945 23.7593 17.3745 22.7645 18.929C21.7697 20.4836 20.3997 21.7629 18.7807 22.6491C17.1617 23.5353 15.3458 23.9998 13.5002 24Z"
				fill="#667185" />
		</symbol>
		<symbol width="24" height="25" viewBox="0 0 24 25" fill="none"
			xmlns="http://www.w3.org/2000/svg" id="home">
			<path
				d="M23.3538 9.9712L13.3538 0.536199C13.3489 0.531934 13.3443 0.52734 13.34 0.522449C12.9718 0.187616 12.492 0.0020752 11.9944 0.0020752C11.4967 0.0020752 11.0169 0.187616 10.6488 0.522449L10.635 0.536199L0.64625 9.9712C0.442497 10.1586 0.279855 10.3862 0.168614 10.6396C0.057374 10.8931 -4.20536e-05 11.1669 2.31098e-08 11.4437V22.9999C2.31098e-08 23.5304 0.210714 24.0391 0.585786 24.4142C0.960859 24.7892 1.46957 24.9999 2 24.9999H8C8.53043 24.9999 9.03914 24.7892 9.41421 24.4142C9.78929 24.0391 10 23.5304 10 22.9999V16.9999H14V22.9999C14 23.5304 14.2107 24.0391 14.5858 24.4142C14.9609 24.7892 15.4696 24.9999 16 24.9999H22C22.5304 24.9999 23.0391 24.7892 23.4142 24.4142C23.7893 24.0391 24 23.5304 24 22.9999V11.4437C24 11.1669 23.9426 10.8931 23.8314 10.6396C23.7201 10.3862 23.5575 10.1586 23.3538 9.9712ZM22 22.9999H16V16.9999C16 16.4695 15.7893 15.9608 15.4142 15.5857C15.0391 15.2107 14.5304 14.9999 14 14.9999H10C9.46957 14.9999 8.96086 15.2107 8.58579 15.5857C8.21071 15.9608 8 16.4695 8 16.9999V22.9999H2V11.4437L2.01375 11.4312L12 1.99995L21.9875 11.4287L22.0012 11.4412L22 22.9999Z"
				fill="#667185" />
		</symbol>

		<symbol width="25" height="22" viewBox="0 0 25 22" fill="none"
			xmlns="http://www.w3.org/2000/svg" id="plan">
			<path
				d="M8.20806 8.29208C8.30103 8.38495 8.37479 8.49524 8.42512 8.61664C8.47544 8.73804 8.50134 8.86816 8.50134 8.99958C8.50134 9.13099 8.47544 9.26112 8.42512 9.38252C8.37479 9.50392 8.30103 9.61421 8.20806 9.70708L4.20806 13.7071C4.11518 13.8001 4.00489 13.8738 3.8835 13.9241C3.7621 13.9745 3.63197 14.0004 3.50056 14.0004C3.36914 14.0004 3.23901 13.9745 3.11762 13.9241C2.99622 13.8738 2.88593 13.8001 2.79306 13.7071L0.793056 11.7071C0.700146 11.6142 0.626445 11.5039 0.576163 11.3825C0.52588 11.2611 0.5 11.131 0.5 10.9996C0.5 10.7342 0.605415 10.4797 0.793056 10.2921C0.980697 10.1044 1.23519 9.99902 1.50056 9.99902C1.76592 9.99902 2.02042 10.1044 2.20806 10.2921L3.50056 11.5858L6.79306 8.29208C6.88593 8.1991 6.99622 8.12534 7.11762 8.07502C7.23901 8.0247 7.36914 7.99879 7.50056 7.99879C7.63197 7.99879 7.7621 8.0247 7.8835 8.07502C8.00489 8.12534 8.11518 8.1991 8.20806 8.29208ZM6.79306 0.292079L3.50056 3.58583L2.20806 2.29208C2.02042 2.10444 1.76592 1.99902 1.50056 1.99902C1.23519 1.99902 0.980697 2.10444 0.793056 2.29208C0.605415 2.47972 0.5 2.73422 0.5 2.99958C0.5 3.26494 0.605415 3.51944 0.793056 3.70708L2.79306 5.70708C2.88593 5.80006 2.99622 5.87381 3.11762 5.92414C3.23901 5.97446 3.36914 6.00037 3.50056 6.00037C3.63197 6.00037 3.7621 5.97446 3.8835 5.92414C4.00489 5.87381 4.11518 5.80006 4.20806 5.70708L8.20806 1.70708C8.3957 1.51944 8.50111 1.26494 8.50111 0.999579C8.50111 0.734215 8.3957 0.47972 8.20806 0.292079C8.02042 0.104439 7.76592 -0.000976562 7.50056 -0.000976562C7.23519 -0.000976562 6.9807 0.104439 6.79306 0.292079ZM6.79306 16.2921L3.50056 19.5858L2.20806 18.2921C2.11515 18.1992 2.00485 18.1255 1.88345 18.0752C1.76206 18.0249 1.63195 17.999 1.50056 17.999C1.36916 17.999 1.23905 18.0249 1.11766 18.0752C0.996267 18.1255 0.885966 18.1992 0.793056 18.2921C0.700146 18.385 0.626445 18.4953 0.576163 18.6167C0.52588 18.7381 0.5 18.8682 0.5 18.9996C0.5 19.131 0.52588 19.2611 0.576163 19.3825C0.626445 19.5039 0.700146 19.6142 0.793056 19.7071L2.79306 21.7071C2.88593 21.8001 2.99622 21.8738 3.11762 21.9241C3.23901 21.9745 3.36914 22.0004 3.50056 22.0004C3.63197 22.0004 3.7621 21.9745 3.8835 21.9241C4.00489 21.8738 4.11518 21.8001 4.20806 21.7071L8.20806 17.7071C8.3957 17.5194 8.50111 17.2649 8.50111 16.9996C8.50111 16.7342 8.3957 16.4797 8.20806 16.2921C8.02042 16.1044 7.76592 15.999 7.50056 15.999C7.23519 15.999 6.9807 16.1044 6.79306 16.2921ZM23.5006 0.999579H12.5006C12.2353 0.999579 11.981 1.10494 11.7934 1.29247C11.6059 1.48001 11.5006 1.73436 11.5006 1.99958V3.99958C11.5006 4.2648 11.6059 4.51915 11.7934 4.70669C11.981 4.89422 12.2353 4.99958 12.5006 4.99958H23.5006C23.7658 4.99958 24.0201 4.89422 24.2077 4.70669C24.3952 4.51915 24.5006 4.2648 24.5006 3.99958V1.99958C24.5006 1.73436 24.3952 1.48001 24.2077 1.29247C24.0201 1.10494 23.7658 0.999579 23.5006 0.999579ZM23.5006 16.9996H12.5006C12.2353 16.9996 11.981 17.1049 11.7934 17.2925C11.6059 17.48 11.5006 17.7344 11.5006 17.9996V19.9996C11.5006 20.2648 11.6059 20.5192 11.7934 20.7067C11.981 20.8942 12.2353 20.9996 12.5006 20.9996H23.5006C23.7658 20.9996 24.0201 20.8942 24.2077 20.7067C24.3952 20.5192 24.5006 20.2648 24.5006 19.9996V17.9996C24.5006 17.7344 24.3952 17.48 24.2077 17.2925C24.0201 17.1049 23.7658 16.9996 23.5006 16.9996ZM23.5006 8.99958H12.5006C12.2353 8.99958 11.981 9.10494 11.7934 9.29247C11.6059 9.48001 11.5006 9.73436 11.5006 9.99958V11.9996C11.5006 12.2648 11.6059 12.5192 11.7934 12.7067C11.981 12.8942 12.2353 12.9996 12.5006 12.9996H23.5006C23.7658 12.9996 24.0201 12.8942 24.2077 12.7067C24.3952 12.5192 24.5006 12.2648 24.5006 11.9996V9.99958C24.5006 9.73436 24.3952 9.48001 24.2077 9.29247C24.0201 9.10494 23.7658 8.99958 23.5006 8.99958Z"
				fill="#344054" />
		</symbol>

		<symbol width="25" height="22" viewBox="0 0 25 22" fill="none"
			xmlns="http://www.w3.org/2000/svg" id="wallet">
			<path
				d="M23 4H3C2.73478 4 2.48043 3.89464 2.29289 3.70711C2.10536 3.51957 2 3.26522 2 3C2 2.73478 2.10536 2.48043 2.29289 2.29289C2.48043 2.10536 2.73478 2 3 2H20C20.2652 2 20.5196 1.89464 20.7071 1.70711C20.8946 1.51957 21 1.26522 21 1C21 0.734784 20.8946 0.48043 20.7071 0.292893C20.5196 0.105357 20.2652 0 20 0H3C2.20435 0 1.44129 0.316071 0.87868 0.87868C0.316071 1.44129 0 2.20435 0 3V19C0 19.7956 0.316071 20.5587 0.87868 21.1213C1.44129 21.6839 2.20435 22 3 22H23C23.5304 22 24.0391 21.7893 24.4142 21.4142C24.7893 21.0391 25 20.5304 25 20V6C25 5.46957 24.7893 4.96086 24.4142 4.58579C24.0391 4.21071 23.5304 4 23 4ZM23 20H3C2.73478 20 2.48043 19.8946 2.29289 19.7071C2.10536 19.5196 2 19.2652 2 19V5.82875C2.32109 5.94257 2.65933 6.0005 3 6H23V20ZM17 12.5C17 12.2033 17.088 11.9133 17.2528 11.6666C17.4176 11.42 17.6519 11.2277 17.926 11.1142C18.2001 11.0007 18.5017 10.9709 18.7926 11.0288C19.0836 11.0867 19.3509 11.2296 19.5607 11.4393C19.7704 11.6491 19.9133 11.9164 19.9712 12.2074C20.0291 12.4983 19.9993 12.7999 19.8858 13.074C19.7723 13.3481 19.58 13.5824 19.3334 13.7472C19.0867 13.912 18.7967 14 18.5 14C18.1022 14 17.7206 13.842 17.4393 13.5607C17.158 13.2794 17 12.8978 17 12.5Z"
				fill="#667185" />
		</symbol>

		<symbol width="25" height="26" viewBox="0 0 25 26" fill="none"
			xmlns="http://www.w3.org/2000/svg" id="notification">
			<path
				d="M24.2255 18.9925C23.5318 17.7975 22.5005 14.4163 22.5005 10C22.5005 7.34784 21.4469 4.8043 19.5716 2.92893C17.6962 1.05357 15.1527 0 12.5005 0C9.84834 0 7.3048 1.05357 5.42944 2.92893C3.55407 4.8043 2.5005 7.34784 2.5005 10C2.5005 14.4175 1.468 17.7975 0.774254 18.9925C0.597092 19.2963 0.503172 19.6415 0.501965 19.9931C0.500758 20.3448 0.592306 20.6906 0.767378 20.9956C0.942449 21.3006 1.19485 21.5541 1.49914 21.7304C1.80342 21.9068 2.14882 21.9997 2.5005 22H7.60175C7.83247 23.1289 8.44603 24.1436 9.33867 24.8722C10.2313 25.6009 11.3482 25.9989 12.5005 25.9989C13.6528 25.9989 14.7697 25.6009 15.6623 24.8722C16.555 24.1436 17.1685 23.1289 17.3993 22H22.5005C22.8521 21.9995 23.1973 21.9064 23.5014 21.73C23.8055 21.5535 24.0578 21.3 24.2327 20.9951C24.4076 20.6901 24.4991 20.3444 24.4978 19.9928C24.4965 19.6412 24.4026 19.2962 24.2255 18.9925ZM12.5005 24C11.8803 23.9998 11.2754 23.8074 10.769 23.4492C10.2626 23.0911 9.87975 22.5848 9.673 22H15.328C15.1213 22.5848 14.7384 23.0911 14.232 23.4492C13.7257 23.8074 13.1207 23.9998 12.5005 24ZM2.5005 20C3.463 18.345 4.5005 14.51 4.5005 10C4.5005 7.87827 5.34336 5.84344 6.84365 4.34315C8.34394 2.84285 10.3788 2 12.5005 2C14.6222 2 16.6571 2.84285 18.1574 4.34315C19.6576 5.84344 20.5005 7.87827 20.5005 10C20.5005 14.5063 21.5355 18.3412 22.5005 20H2.5005Z"
				fill="#667185" />
		</symbol>

		<symbol width="24" height="24" viewBox="0 0 24 24" fill="none"
			xmlns="http://www.w3.org/2000/svg" id="create">
			<path
				d="M22 0H2C1.46957 0 0.960859 0.210714 0.585786 0.585786C0.210714 0.960859 0 1.46957 0 2V22C0 22.5304 0.210714 23.0391 0.585786 23.4142C0.960859 23.7893 1.46957 24 2 24H22C22.5304 24 23.0391 23.7893 23.4142 23.4142C23.7893 23.0391 24 22.5304 24 22V2C24 1.46957 23.7893 0.960859 23.4142 0.585786C23.0391 0.210714 22.5304 0 22 0ZM22 22H2V2H22V22ZM18 12C18 12.2652 17.8946 12.5196 17.7071 12.7071C17.5196 12.8946 17.2652 13 17 13H13V17C13 17.2652 12.8946 17.5196 12.7071 17.7071C12.5196 17.8946 12.2652 18 12 18C11.7348 18 11.4804 17.8946 11.2929 17.7071C11.1054 17.5196 11 17.2652 11 17V13H7C6.73478 13 6.48043 12.8946 6.29289 12.7071C6.10536 12.5196 6 12.2652 6 12C6 11.7348 6.10536 11.4804 6.29289 11.2929C6.48043 11.1054 6.73478 11 7 11H11V7C11 6.73478 11.1054 6.48043 11.2929 6.29289C11.4804 6.10536 11.7348 6 12 6C12.2652 6 12.5196 6.10536 12.7071 6.29289C12.8946 6.48043 13 6.73478 13 7V11H17C17.2652 11 17.5196 11.1054 17.7071 11.2929C17.8946 11.4804 18 11.7348 18 12Z"
				fill="#667185" />
		</symbol>

		<symbol width="29" height="25" viewBox="0 0 29 25" fill="none"
			xmlns="http://www.w3.org/2000/svg" id="cart">
			<path
				d="M15.4994 13.0002V20.0002C15.4994 20.2655 15.3941 20.5198 15.2065 20.7073C15.019 20.8949 14.7646 21.0002 14.4994 21.0002C14.2342 21.0002 13.9799 20.8949 13.7923 20.7073C13.6048 20.5198 13.4994 20.2655 13.4994 20.0002V13.0002C13.4994 12.735 13.6048 12.4807 13.7923 12.2931C13.9799 12.1056 14.2342 12.0002 14.4994 12.0002C14.7646 12.0002 15.019 12.1056 15.2065 12.2931C15.3941 12.4807 15.4994 12.735 15.4994 13.0002ZM28.4819 10.264L26.7494 23.2652C26.6852 23.7457 26.4486 24.1865 26.0837 24.5057C25.7188 24.8248 25.2505 25.0006 24.7657 25.0002H4.23318C3.74841 25.0006 3.28002 24.8248 2.91512 24.5057C2.55023 24.1865 2.31366 23.7457 2.24943 23.2652L0.515681 10.2652C0.4779 9.98261 0.500989 9.69517 0.583401 9.4222C0.665814 9.14923 0.805643 8.89703 0.993511 8.68253C1.18138 8.46802 1.41294 8.29617 1.67267 8.1785C1.9324 8.06082 2.21429 8.00004 2.49943 8.00024H7.04568L13.7494 0.341492C13.8433 0.235085 13.9587 0.149865 14.088 0.0914917C14.2173 0.0331187 14.3576 0.00292969 14.4994 0.00292969C14.6413 0.00292969 14.7816 0.0331187 14.9109 0.0914917C15.0402 0.149865 15.1556 0.235085 15.2494 0.341492L21.9532 8.00024H26.4994C26.7842 8.00042 27.0657 8.06143 27.3251 8.17919C27.5844 8.29695 27.8156 8.46874 28.0031 8.68306C28.1907 8.89738 28.3304 9.14929 28.4127 9.42193C28.4951 9.69458 28.5182 9.98167 28.4807 10.264H28.4819ZM9.70318 8.00024H19.2957L14.4994 2.51899L9.70318 8.00024ZM26.4994 10.0002H2.49943L4.23318 23.0002H24.7657L26.4994 10.0002ZM20.1044 12.9002L19.4044 19.9002C19.3906 20.0313 19.4028 20.1638 19.4404 20.2901C19.4779 20.4164 19.5401 20.5341 19.6232 20.6363C19.7064 20.7386 19.809 20.8233 19.925 20.8858C20.0411 20.9482 20.1683 20.9871 20.2994 21.0002C20.3332 21.0021 20.367 21.0021 20.4007 21.0002C20.6484 20.9999 20.8871 20.9077 21.0707 20.7414C21.2543 20.5752 21.3697 20.3467 21.3944 20.1002L22.0944 13.1002C22.121 12.8364 22.0416 12.5727 21.8737 12.3674C21.7059 12.162 21.4633 12.0318 21.1994 12.0052C20.9355 11.9787 20.6719 12.0581 20.4666 12.226C20.2612 12.3938 20.131 12.6364 20.1044 12.9002ZM8.89443 12.9002C8.86791 12.6364 8.73765 12.3938 8.53229 12.226C8.32694 12.0581 8.06332 11.9787 7.79943 12.0052C7.53554 12.0318 7.29299 12.162 7.12515 12.3674C6.9573 12.5727 6.87791 12.8364 6.90443 13.1002L7.60443 20.1002C7.6293 20.3478 7.74555 20.5771 7.93045 20.7435C8.11536 20.91 8.35566 21.0015 8.60443 21.0002C8.63816 21.0021 8.67196 21.0021 8.70568 21.0002C8.83635 20.9871 8.96315 20.9484 9.07884 20.8862C9.19454 20.8241 9.29686 20.7398 9.37997 20.6381C9.46308 20.5364 9.52534 20.4194 9.56321 20.2936C9.60108 20.1679 9.61382 20.0359 9.60068 19.9052L8.89443 12.9002Z"
				fill="#667185" />
		</symbol>

		<symbol width="17" height="10" viewBox="0 0 17 10" fill="none"
			xmlns="http://www.w3.org/2000/svg" id="dropdown">
			<path
				d="M16.531 1.53031L9.03104 9.03031C8.96139 9.10004 8.87867 9.15536 8.78762 9.19311C8.69657 9.23085 8.59898 9.25027 8.50042 9.25027C8.40186 9.25027 8.30426 9.23085 8.21321 9.19311C8.12216 9.15536 8.03945 9.10004 7.96979 9.03031L0.469792 1.53031C0.329062 1.38958 0.25 1.19871 0.25 0.999685C0.25 0.800662 0.329062 0.60979 0.469792 0.469059C0.610523 0.328329 0.801394 0.249268 1.00042 0.249268C1.19944 0.249268 1.39031 0.328329 1.53104 0.469059L8.50042 7.43937L15.4698 0.469059C15.5395 0.399377 15.6222 0.344101 15.7132 0.306389C15.8043 0.268677 15.9019 0.249268 16.0004 0.249268C16.099 0.249268 16.1965 0.268677 16.2876 0.306389C16.3786 0.344101 16.4614 0.399377 16.531 0.469059C16.6007 0.538742 16.656 0.621468 16.6937 0.712512C16.7314 0.803557 16.7508 0.901138 16.7508 0.999685C16.7508 1.09823 16.7314 1.19581 16.6937 1.28686C16.656 1.3779 16.6007 1.46063 16.531 1.53031Z"
				fill="#667185" />
		</symbol>

		<symbol width="28" height="18" viewBox="0 0 28 18" fill="none"
			xmlns="http://www.w3.org/2000/svg"
			id="activities">
			<path
				d="M27.4899 17.875C27.3751 17.9397 27.2486 17.9811 27.1178 17.9968C26.9869 18.0125 26.8542 18.0021 26.7274 17.9663C26.6005 17.9306 26.482 17.8701 26.3786 17.7883C26.2752 17.7066 26.189 17.6052 26.1249 17.49L17.4149 2H14.9999V3C14.9999 3.26522 14.8946 3.51957 14.707 3.70711C14.5195 3.89464 14.2651 4 13.9999 4C13.7347 4 13.4804 3.89464 13.2928 3.70711C13.1053 3.51957 12.9999 3.26522 12.9999 3V2H10.5849L1.87493 17.49C1.74497 17.7221 1.52815 17.893 1.27217 17.9652C1.01618 18.0374 0.741995 18.005 0.509931 17.875C0.277866 17.745 0.106932 17.5282 0.0347302 17.2722C-0.0374713 17.0162 -0.00502525 16.7421 0.124931 16.51L8.28993 2H0.999931C0.734714 2 0.48036 1.89464 0.292824 1.70711C0.105288 1.51957 -6.91786e-05 1.26522 -6.91786e-05 1C-6.91786e-05 0.734784 0.105288 0.48043 0.292824 0.292893C0.48036 0.105357 0.734714 0 0.999931 0H26.9999C27.2651 0 27.5195 0.105357 27.707 0.292893C27.8946 0.48043 27.9999 0.734784 27.9999 1C27.9999 1.26522 27.8946 1.51957 27.707 1.70711C27.5195 1.89464 27.2651 2 26.9999 2H19.7099L27.8749 16.51C27.9397 16.6248 27.9811 16.7513 27.9967 16.8822C28.0124 17.013 28.0021 17.1457 27.9663 17.2726C27.9305 17.3994 27.87 17.5179 27.7882 17.6213C27.7065 17.7247 27.6051 17.8109 27.4899 17.875ZM13.9999 7C13.7347 7 13.4804 7.10536 13.2928 7.29289C13.1053 7.48043 12.9999 7.73478 12.9999 8V10C12.9999 10.2652 13.1053 10.5196 13.2928 10.7071C13.4804 10.8946 13.7347 11 13.9999 11C14.2651 11 14.5195 10.8946 14.707 10.7071C14.8946 10.5196 14.9999 10.2652 14.9999 10V8C14.9999 7.73478 14.8946 7.48043 14.707 7.29289C14.5195 7.10536 14.2651 7 13.9999 7ZM13.9999 14C13.7347 14 13.4804 14.1054 13.2928 14.2929C13.1053 14.4804 12.9999 14.7348 12.9999 15V17C12.9999 17.2652 13.1053 17.5196 13.2928 17.7071C13.4804 17.8946 13.7347 18 13.9999 18C14.2651 18 14.5195 17.8946 14.707 17.7071C14.8946 17.5196 14.9999 17.2652 14.9999 17V15C14.9999 14.7348 14.8946 14.4804 14.707 14.2929C14.5195 14.1054 14.2651 14 13.9999 14Z"
				fill="#667185" />
		</symbol>

		<symbol width="25" height="25" viewBox="0 0 25 25" fill="none"
			xmlns="http://www.w3.org/2000/svg" id="flight">
			<path
				d="M20.1663 10.276L23.8088 6.8485L23.83 6.82725C24.5802 6.07702 25.0017 5.05949 25.0017 3.9985C25.0017 2.93752 24.5802 1.91998 23.83 1.16975C23.0798 0.419522 22.0622 -0.00195312 21.0013 -0.00195312C19.9403 -0.00195312 18.9227 0.419522 18.1725 1.16975C18.1725 1.17725 18.1588 1.1835 18.1513 1.191L14.7238 4.8335L4.34876 1.0585C4.16994 0.993466 3.97628 0.980794 3.79052 1.02198C3.60475 1.06316 3.43459 1.15649 3.30001 1.291L0.300009 4.291C0.19547 4.39563 0.11544 4.52213 0.065684 4.66141C0.0159283 4.80069 -0.00231359 4.94927 0.0122727 5.09645C0.0268591 5.24363 0.0739103 5.38574 0.150036 5.51254C0.226163 5.63935 0.329468 5.74769 0.452509 5.82975L8.43876 11.1535L6.58626 12.9998H4.00001C3.73515 12.9999 3.48115 13.1051 3.29376 13.2923L0.293759 16.2923C0.176761 16.409 0.0905118 16.5529 0.0427236 16.7111C-0.00506473 16.8692 -0.0129021 17.0368 0.0199124 17.1988C0.0527268 17.3608 0.12517 17.5121 0.230764 17.6392C0.336358 17.7663 0.471811 17.8653 0.625009 17.9273L5.22751 19.7685L7.06501 24.3623L7.07251 24.3823C7.13608 24.5361 7.23706 24.6717 7.36629 24.7767C7.49552 24.8816 7.64891 24.9527 7.81255 24.9833C7.97618 25.014 8.14489 25.0033 8.30336 24.9523C8.46182 24.9012 8.60504 24.8114 8.72001 24.691L11.7038 21.706C11.7971 21.6135 11.8713 21.5035 11.9222 21.3824C11.973 21.2612 11.9995 21.1312 12 20.9998V18.4135L13.845 16.5685L19.1688 24.5548C19.2508 24.6778 19.3592 24.7811 19.486 24.8572C19.6128 24.9334 19.7549 24.9804 19.9021 24.995C20.0492 25.0096 20.1978 24.9913 20.3371 24.9416C20.4764 24.8918 20.6029 24.8118 20.7075 24.7073L23.7075 21.7073C23.842 21.5727 23.9354 21.4025 23.9765 21.2167C24.0177 21.031 24.005 20.8373 23.94 20.6585L20.1663 10.276ZM20.1575 22.4298L14.8338 14.4448C14.7521 14.3208 14.644 14.2165 14.517 14.1395C14.3901 14.0626 14.2477 14.0148 14.1 13.9998C14.0663 13.9998 14.0338 13.9998 14.0013 13.9998C13.8698 13.9998 13.7397 14.0258 13.6183 14.0762C13.4969 14.1266 13.3866 14.2004 13.2938 14.2935L10.2938 17.2935C10.1061 17.4807 10.0005 17.7347 10 17.9998V20.586L8.36626 22.2198L6.92876 18.6248C6.87846 18.4999 6.8035 18.3866 6.70834 18.2914C6.61319 18.1963 6.49982 18.1213 6.37501 18.071L2.78251 16.6335L4.41501 14.9998H7.00001C7.13137 14.9999 7.26146 14.9741 7.38286 14.9239C7.50425 14.8737 7.61457 14.8001 7.70751 14.7073L10.7075 11.7073C10.8123 11.6026 10.8925 11.476 10.9424 11.3366C10.9923 11.1972 11.0106 11.0485 10.996 10.9011C10.9814 10.7538 10.9343 10.6115 10.858 10.4846C10.7818 10.3577 10.6783 10.2493 10.555 10.1673L2.57001 4.84225L4.25751 3.156L14.66 6.9385C14.8433 7.00585 15.0423 7.01806 15.2324 6.97364C15.4226 6.92921 15.5955 6.83009 15.73 6.6885L19.5975 2.57475C19.9745 2.20881 20.4803 2.00589 21.0056 2.00985C21.531 2.0138 22.0337 2.22432 22.4051 2.59589C22.7765 2.96747 22.9868 3.47026 22.9905 3.99562C22.9943 4.52098 22.7911 5.0267 22.425 5.4035L18.3163 9.26975C18.1747 9.40422 18.0756 9.5772 18.0311 9.76734C17.9867 9.95748 17.9989 10.1565 18.0663 10.3398L21.8488 20.7423L20.1575 22.4298Z"
				fill="#667185" />
		</symbol>

		<symbol width="30" height="26" viewBox="0 0 30 26" fill="none"
			xmlns="http://www.w3.org/2000/svg" id="hotels">
			<path
				d="M29 24.0003H27V10.0003C27 9.46989 26.7893 8.96118 26.4142 8.58611C26.0391 8.21104 25.5304 8.00032 25 8.00032H17V2.00032C17.0002 1.63815 16.9021 1.28272 16.7161 0.971949C16.5301 0.661182 16.2633 0.40675 15.944 0.235811C15.6247 0.0648719 15.265 -0.0161591 14.9032 0.00136702C14.5415 0.0188932 14.1913 0.134319 13.89 0.335324L3.89 7.00032C3.61567 7.18335 3.39086 7.43137 3.23558 7.7223C3.0803 8.01323 2.99937 8.33805 3 8.66782V24.0003H1C0.734784 24.0003 0.48043 24.1057 0.292893 24.2932C0.105357 24.4808 0 24.7351 0 25.0003C0 25.2655 0.105357 25.5199 0.292893 25.7074C0.48043 25.895 0.734784 26.0003 1 26.0003H29C29.2652 26.0003 29.5196 25.895 29.7071 25.7074C29.8946 25.5199 30 25.2655 30 25.0003C30 24.7351 29.8946 24.4808 29.7071 24.2932C29.5196 24.1057 29.2652 24.0003 29 24.0003ZM25 10.0003V24.0003H17V10.0003H25ZM5 8.66782L15 2.00032V24.0003H5V8.66782ZM13 12.0003V14.0003C13 14.2655 12.8946 14.5199 12.7071 14.7074C12.5196 14.895 12.2652 15.0003 12 15.0003C11.7348 15.0003 11.4804 14.895 11.2929 14.7074C11.1054 14.5199 11 14.2655 11 14.0003V12.0003C11 11.7351 11.1054 11.4808 11.2929 11.2932C11.4804 11.1057 11.7348 11.0003 12 11.0003C12.2652 11.0003 12.5196 11.1057 12.7071 11.2932C12.8946 11.4808 13 11.7351 13 12.0003ZM9 12.0003V14.0003C9 14.2655 8.89464 14.5199 8.70711 14.7074C8.51957 14.895 8.26522 15.0003 8 15.0003C7.73478 15.0003 7.48043 14.895 7.29289 14.7074C7.10536 14.5199 7 14.2655 7 14.0003V12.0003C7 11.7351 7.10536 11.4808 7.29289 11.2932C7.48043 11.1057 7.73478 11.0003 8 11.0003C8.26522 11.0003 8.51957 11.1057 8.70711 11.2932C8.89464 11.4808 9 11.7351 9 12.0003ZM9 19.0003V21.0003C9 21.2655 8.89464 21.5199 8.70711 21.7074C8.51957 21.895 8.26522 22.0003 8 22.0003C7.73478 22.0003 7.48043 21.895 7.29289 21.7074C7.10536 21.5199 7 21.2655 7 21.0003V19.0003C7 18.7351 7.10536 18.4808 7.29289 18.2932C7.48043 18.1057 7.73478 18.0003 8 18.0003C8.26522 18.0003 8.51957 18.1057 8.70711 18.2932C8.89464 18.4808 9 18.7351 9 19.0003ZM13 19.0003V21.0003C13 21.2655 12.8946 21.5199 12.7071 21.7074C12.5196 21.895 12.2652 22.0003 12 22.0003C11.7348 22.0003 11.4804 21.895 11.2929 21.7074C11.1054 21.5199 11 21.2655 11 21.0003V19.0003C11 18.7351 11.1054 18.4808 11.2929 18.2932C11.4804 18.1057 11.7348 18.0003 12 18.0003C12.2652 18.0003 12.5196 18.1057 12.7071 18.2932C12.8946 18.4808 13 18.7351 13 19.0003Z"
				fill="#667185" />
		</symbol>

		<symbol width="20" height="31" viewBox="0 0 20 31" fill="none"
			xmlns="http://www.w3.org/2000/svg" id="immigration">
			<path
				d="M7 11V23C7 23.2652 6.89464 23.5196 6.70711 23.7071C6.51957 23.8946 6.26522 24 6 24C5.73478 24 5.48043 23.8946 5.29289 23.7071C5.10536 23.5196 5 23.2652 5 23V11C5 10.7348 5.10536 10.4804 5.29289 10.2929C5.48043 10.1054 5.73478 10 6 10C6.26522 10 6.51957 10.1054 6.70711 10.2929C6.89464 10.4804 7 10.7348 7 11ZM10 10C9.73478 10 9.48043 10.1054 9.29289 10.2929C9.10536 10.4804 9 10.7348 9 11V23C9 23.2652 9.10536 23.5196 9.29289 23.7071C9.48043 23.8946 9.73478 24 10 24C10.2652 24 10.5196 23.8946 10.7071 23.7071C10.8946 23.5196 11 23.2652 11 23V11C11 10.7348 10.8946 10.4804 10.7071 10.2929C10.5196 10.1054 10.2652 10 10 10ZM14 10C13.7348 10 13.4804 10.1054 13.2929 10.2929C13.1054 10.4804 13 10.7348 13 11V23C13 23.2652 13.1054 23.5196 13.2929 23.7071C13.4804 23.8946 13.7348 24 14 24C14.2652 24 14.5196 23.8946 14.7071 23.7071C14.8946 23.5196 15 23.2652 15 23V11C15 10.7348 14.8946 10.4804 14.7071 10.2929C14.5196 10.1054 14.2652 10 14 10ZM20 8V26C20 26.5304 19.7893 27.0391 19.4142 27.4142C19.0391 27.7893 18.5304 28 18 28H16V30C16 30.2652 15.8946 30.5196 15.7071 30.7071C15.5196 30.8946 15.2652 31 15 31C14.7348 31 14.4804 30.8946 14.2929 30.7071C14.1054 30.5196 14 30.2652 14 30V28H6V30C6 30.2652 5.89464 30.5196 5.70711 30.7071C5.51957 30.8946 5.26522 31 5 31C4.73478 31 4.48043 30.8946 4.29289 30.7071C4.10536 30.5196 4 30.2652 4 30V28H2C1.46957 28 0.960859 27.7893 0.585786 27.4142C0.210714 27.0391 0 26.5304 0 26V8C0 7.46957 0.210714 6.96086 0.585786 6.58579C0.960859 6.21071 1.46957 6 2 6H5V3C5 2.20435 5.31607 1.44129 5.87868 0.87868C6.44129 0.31607 7.20435 0 8 0L12 0C12.7956 0 13.5587 0.31607 14.1213 0.87868C14.6839 1.44129 15 2.20435 15 3V6H18C18.5304 6 19.0391 6.21071 19.4142 6.58579C19.7893 6.96086 20 7.46957 20 8ZM7 6H13V3C13 2.73478 12.8946 2.48043 12.7071 2.29289C12.5196 2.10536 12.2652 2 12 2H8C7.73478 2 7.48043 2.10536 7.29289 2.29289C7.10536 2.48043 7 2.73478 7 3V6ZM18 26V8H2V26H18Z"
				fill="#667185" />
		</symbol>

		<symbol width="26" height="24" viewBox="0 0 26 24" fill="none"
			xmlns="http://www.w3.org/2000/svg" id="medical">
			<path
				d="M24 4H19V3C19 2.20435 18.6839 1.44129 18.1213 0.87868C17.5587 0.316071 16.7956 0 16 0H10C9.20435 0 8.44129 0.316071 7.87868 0.87868C7.31607 1.44129 7 2.20435 7 3V4H2C1.46957 4 0.960859 4.21071 0.585786 4.58579C0.210714 4.96086 0 5.46957 0 6V22C0 22.5304 0.210714 23.0391 0.585786 23.4142C0.960859 23.7893 1.46957 24 2 24H24C24.5304 24 25.0391 23.7893 25.4142 23.4142C25.7893 23.0391 26 22.5304 26 22V6C26 5.46957 25.7893 4.96086 25.4142 4.58579C25.0391 4.21071 24.5304 4 24 4ZM9 3C9 2.73478 9.10536 2.48043 9.29289 2.29289C9.48043 2.10536 9.73478 2 10 2H16C16.2652 2 16.5196 2.10536 16.7071 2.29289C16.8946 2.48043 17 2.73478 17 3V4H9V3ZM24 22H2V6H24V22ZM17 14C17 14.2652 16.8946 14.5196 16.7071 14.7071C16.5196 14.8946 16.2652 15 16 15H14V17C14 17.2652 13.8946 17.5196 13.7071 17.7071C13.5196 17.8946 13.2652 18 13 18C12.7348 18 12.4804 17.8946 12.2929 17.7071C12.1054 17.5196 12 17.2652 12 17V15H10C9.73478 15 9.48043 14.8946 9.29289 14.7071C9.10536 14.5196 9 14.2652 9 14C9 13.7348 9.10536 13.4804 9.29289 13.2929C9.48043 13.1054 9.73478 13 10 13H12V11C12 10.7348 12.1054 10.4804 12.2929 10.2929C12.4804 10.1054 12.7348 10 13 10C13.2652 10 13.5196 10.1054 13.7071 10.2929C13.8946 10.4804 14 10.7348 14 11V13H16C16.2652 13 16.5196 13.1054 16.7071 13.2929C16.8946 13.4804 17 13.7348 17 14Z"
				fill="#667185" />
		</symbol>

		<symbol width="26" height="26" viewBox="0 0 26 26" fill="none"
			xmlns="http://www.w3.org/2000/svg" id="study">
			<path
				d="M25.3162 4.0512L13.3162 0.051202C13.111 -0.0172301 12.889 -0.0172301 12.6838 0.051202L0.68375 4.0512C0.484631 4.11758 0.311446 4.24493 0.188729 4.41521C0.0660121 4.58549 -1.55528e-05 4.79006 2.74795e-09 4.99995V15C2.74795e-09 15.2652 0.105357 15.5195 0.292893 15.7071C0.48043 15.8946 0.734784 16 1 16C1.26522 16 1.51957 15.8946 1.70711 15.7071C1.89464 15.5195 2 15.2652 2 15V6.38745L6.19875 7.7862C5.0832 9.58846 4.72846 11.7598 5.21242 13.8233C5.69638 15.8869 6.97949 17.6741 8.78 18.7925C6.53 19.675 4.585 21.2712 3.1625 23.4537C3.08852 23.5637 3.03713 23.6872 3.01133 23.8172C2.98552 23.9472 2.98581 24.081 3.01218 24.2109C3.03854 24.3408 3.09046 24.4641 3.16492 24.5737C3.23937 24.6834 3.33488 24.7771 3.44588 24.8495C3.55688 24.9219 3.68117 24.9715 3.81151 24.9955C3.94185 25.0194 4.07566 25.0172 4.20514 24.989C4.33463 24.9608 4.45722 24.9071 4.56577 24.8311C4.67433 24.7551 4.7667 24.6582 4.8375 24.5462C6.72125 21.6562 9.69625 20 13 20C16.3037 20 19.2788 21.6562 21.1625 24.5462C21.3092 24.7642 21.5357 24.9157 21.7932 24.968C22.0507 25.0203 22.3184 24.9691 22.5385 24.8256C22.7586 24.682 22.9133 24.4576 22.9692 24.2009C23.0252 23.9442 22.9779 23.6758 22.8375 23.4537C21.415 21.2712 19.4625 19.675 17.22 18.7925C19.0188 17.6741 20.3007 15.8881 20.7846 13.8261C21.2684 11.764 20.9148 9.59418 19.8013 7.79245L25.3162 5.95495C25.5154 5.88861 25.6886 5.76128 25.8114 5.591C25.9342 5.42072 26.0002 5.21612 26.0002 5.0062C26.0002 4.79628 25.9342 4.59169 25.8114 4.42141C25.6886 4.25112 25.5154 4.12379 25.3162 4.05745V4.0512ZM19 12C19.0003 12.9485 18.7756 13.8836 18.3445 14.7286C17.9134 15.5735 17.2881 16.3042 16.5199 16.8607C15.7517 17.4172 14.8625 17.7836 13.9253 17.9299C12.9881 18.0762 12.0295 17.9982 11.1283 17.7022C10.2271 17.4063 9.40884 16.901 8.74074 16.2276C8.07264 15.5542 7.57371 14.7321 7.28489 13.8285C6.99607 12.925 6.92559 11.9659 7.07923 11.0298C7.23287 10.0938 7.60626 9.2075 8.16875 8.4437L12.6838 9.9437C12.889 10.0121 13.111 10.0121 13.3162 9.9437L17.8312 8.4437C18.591 9.4737 19.0006 10.7201 19 12ZM13 7.9462L4.1625 4.99995L13 2.0537L21.8375 4.99995L13 7.9462Z"
				fill="#667185" />
		</symbol>

		<symbol width="26" height="28" viewBox="0 0 26 28" fill="none"
			xmlns="http://www.w3.org/2000/svg" id="vacation">
			<path
				d="M24.96 6.26828L13.96 0.249534C13.6661 0.087137 13.3358 0.00195312 13 0.00195312C12.6642 0.00195312 12.3339 0.087137 12.04 0.249534L1.04 6.27078C0.725861 6.44267 0.463629 6.69573 0.28069 7.00357C0.0977502 7.3114 0.000812822 7.6627 0 8.02078V19.9758C0.000812822 20.3339 0.0977502 20.6852 0.28069 20.993C0.463629 21.3008 0.725861 21.5539 1.04 21.7258L12.04 27.747C12.3339 27.9094 12.6642 27.9946 13 27.9946C13.3358 27.9946 13.6661 27.9094 13.96 27.747L24.96 21.7258C25.2741 21.5539 25.5364 21.3008 25.7193 20.993C25.9023 20.6852 25.9992 20.3339 26 19.9758V8.02203C25.9999 7.66331 25.9032 7.31123 25.7203 7.00268C25.5373 6.69413 25.2747 6.44047 24.96 6.26828ZM13 1.99953L23.0425 7.49953L19.3213 9.53703L9.2775 4.03703L13 1.99953ZM13 12.9995L2.9575 7.49953L7.195 5.17953L17.2375 10.6795L13 12.9995ZM2 9.24953L12 14.722V25.4458L2 19.977V9.24953ZM24 19.972L14 25.4458V14.727L18 12.5383V16.9995C18 17.2648 18.1054 17.5191 18.2929 17.7066C18.4804 17.8942 18.7348 17.9995 19 17.9995C19.2652 17.9995 19.5196 17.8942 19.7071 17.7066C19.8946 17.5191 20 17.2648 20 16.9995V11.4433L24 9.24953V19.9708V19.972Z"
				fill="#667185" />
		</symbol>

		<symbol width="26" height="23" viewBox="0 0 26 23" fill="none"
			xmlns="http://www.w3.org/2000/svg" id="visa">
			<path
				d="M24 0H2C1.46957 0 0.960859 0.210714 0.585786 0.585786C0.210714 0.960859 0 1.46957 0 2V22C9.09903e-05 22.1704 0.0437432 22.338 0.126812 22.4869C0.209881 22.6357 0.32961 22.7608 0.474632 22.8503C0.619654 22.9399 0.785156 22.9909 0.955425 22.9985C1.12569 23.0061 1.29508 22.97 1.4475 22.8937L5 21.1175L8.5525 22.8937C8.69143 22.9633 8.84465 22.9995 9 22.9995C9.15535 22.9995 9.30857 22.9633 9.4475 22.8937L13 21.1175L16.5525 22.8937C16.6914 22.9633 16.8446 22.9995 17 22.9995C17.1554 22.9995 17.3086 22.9633 17.4475 22.8937L21 21.1175L24.5525 22.8937C24.7049 22.97 24.8743 23.0061 25.0446 22.9985C25.2148 22.9909 25.3803 22.9399 25.5254 22.8503C25.6704 22.7608 25.7901 22.6357 25.8732 22.4869C25.9563 22.338 25.9999 22.1704 26 22V2C26 1.46957 25.7893 0.960859 25.4142 0.585786C25.0391 0.210714 24.5304 0 24 0ZM24 20.3825L21.4475 19.105C21.3086 19.0355 21.1554 18.9993 21 18.9993C20.8446 18.9993 20.6914 19.0355 20.5525 19.105L17 20.8825L13.4475 19.105C13.3086 19.0355 13.1554 18.9993 13 18.9993C12.8446 18.9993 12.6914 19.0355 12.5525 19.105L9 20.8825L5.4475 19.105C5.30857 19.0355 5.15535 18.9993 5 18.9993C4.84465 18.9993 4.69143 19.0355 4.5525 19.105L2 20.3825V2H24V20.3825ZM14 9C14 8.73478 14.1054 8.48043 14.2929 8.29289C14.4804 8.10536 14.7348 8 15 8H21C21.2652 8 21.5196 8.10536 21.7071 8.29289C21.8946 8.48043 22 8.73478 22 9C22 9.26522 21.8946 9.51957 21.7071 9.70711C21.5196 9.89464 21.2652 10 21 10H15C14.7348 10 14.4804 9.89464 14.2929 9.70711C14.1054 9.51957 14 9.26522 14 9ZM14 13C14 12.7348 14.1054 12.4804 14.2929 12.2929C14.4804 12.1054 14.7348 12 15 12H21C21.2652 12 21.5196 12.1054 21.7071 12.2929C21.8946 12.4804 22 12.7348 22 13C22 13.2652 21.8946 13.5196 21.7071 13.7071C21.5196 13.8946 21.2652 14 21 14H15C14.7348 14 14.4804 13.8946 14.2929 13.7071C14.1054 13.5196 14 13.2652 14 13ZM5 16H11C11.2652 16 11.5196 15.8946 11.7071 15.7071C11.8946 15.5196 12 15.2652 12 15V7C12 6.73478 11.8946 6.48043 11.7071 6.29289C11.5196 6.10536 11.2652 6 11 6H5C4.73478 6 4.48043 6.10536 4.29289 6.29289C4.10536 6.48043 4 6.73478 4 7V15C4 15.2652 4.10536 15.5196 4.29289 15.7071C4.48043 15.8946 4.73478 16 5 16ZM6 8H10V14H6V8Z"
				fill="#667185" />
		</symbol>

		<symbol width="24" height="24" viewBox="0 0 24 24" fill="none"
			xmlns="http://www.w3.org/2000/svg" id="up-down">
			<path
				d="M17.031 15.9692C17.1008 16.0389 17.1561 16.1216 17.1938 16.2127C17.2316 16.3037 17.251 16.4013 17.251 16.4999C17.251 16.5984 17.2316 16.696 17.1938 16.7871C17.1561 16.8781 17.1008 16.9608 17.031 17.0305L12.531 21.5305C12.4614 21.6002 12.3787 21.6555 12.2876 21.6933C12.1966 21.731 12.099 21.7504 12.0004 21.7504C11.9019 21.7504 11.8043 21.731 11.7132 21.6933C11.6222 21.6555 11.5394 21.6002 11.4698 21.5305L6.96979 17.0305C6.82906 16.8898 6.75 16.6989 6.75 16.4999C6.75 16.3008 6.82906 16.11 6.96979 15.9692C7.11052 15.8285 7.30139 15.7494 7.50042 15.7494C7.69944 15.7494 7.89031 15.8285 8.03104 15.9692L12.0004 19.9395L15.9698 15.9692C16.0394 15.8995 16.1222 15.8442 16.2132 15.8064C16.3043 15.7687 16.4019 15.7493 16.5004 15.7493C16.599 15.7493 16.6966 15.7687 16.7876 15.8064C16.8787 15.8442 16.9614 15.8995 17.031 15.9692ZM8.03104 8.03048L12.0004 4.06017L15.9698 8.03048C16.1105 8.17121 16.3014 8.25027 16.5004 8.25027C16.6994 8.25027 16.8903 8.17121 17.031 8.03048C17.1718 7.88975 17.2508 7.69888 17.2508 7.49986C17.2508 7.30083 17.1718 7.10996 17.031 6.96923L12.531 2.46923C12.4614 2.3995 12.3787 2.34418 12.2876 2.30644C12.1966 2.26869 12.099 2.24927 12.0004 2.24927C11.9019 2.24927 11.8043 2.26869 11.7132 2.30644C11.6222 2.34418 11.5394 2.3995 11.4698 2.46923L6.96979 6.96923C6.82906 7.10996 6.75 7.30083 6.75 7.49986C6.75 7.69888 6.82906 7.88975 6.96979 8.03048C7.11052 8.17121 7.30139 8.25027 7.50042 8.25027C7.69944 8.25027 7.89031 8.17121 8.03104 8.03048Z"
				fill="#667185" />
		</symbol>
		<symbol width="24" height="24" viewBox="0 0 24 24" fill="none"
			xmlns="http://www.w3.org/2000/svg" id="arrow-left">
			<path
				d="M21.3744 12.0003C21.3744 12.2987 21.2559 12.5848 21.0449 12.7958C20.8339 13.0068 20.5478 13.1253 20.2494 13.1253H6.46817L11.2982 17.9543C11.5095 18.1657 11.6282 18.4523 11.6282 18.7512C11.6282 19.0501 11.5095 19.3367 11.2982 19.5481C11.0868 19.7594 10.8002 19.8782 10.5013 19.8782C10.2024 19.8782 9.91577 19.7594 9.70442 19.5481L2.95442 12.7981C2.84954 12.6936 2.76633 12.5694 2.70954 12.4326C2.65276 12.2959 2.62354 12.1493 2.62354 12.0012C2.62354 11.8532 2.65276 11.7065 2.70954 11.5698C2.76633 11.4331 2.84954 11.3089 2.95442 11.2043L9.70442 4.45434C9.80907 4.3497 9.9333 4.26669 10.07 4.21005C10.2068 4.15342 10.3533 4.12427 10.5013 4.12427C10.6493 4.12427 10.7958 4.15342 10.9326 4.21005C11.0693 4.26669 11.1935 4.3497 11.2982 4.45434C11.4028 4.55899 11.4858 4.68323 11.5425 4.81995C11.5991 4.95668 11.6282 5.10323 11.6282 5.25122C11.6282 5.39921 11.5991 5.54576 11.5425 5.68248C11.4858 5.81921 11.4028 5.94345 11.2982 6.04809L6.46817 10.8753H20.2494C20.5478 10.8753 20.8339 10.9938 21.0449 11.2048C21.2559 11.4158 21.3744 11.7019 21.3744 12.0003Z"
				fill="#344054" />
		</symbol>
		<symbol width="14" height="15" viewBox="0 0 14 15" fill="none"
			xmlns="http://www.w3.org/2000/svg" id="calender">
			<path
				d="M12 1.75H10.75V1.5C10.75 1.30109 10.671 1.11032 10.5303 0.96967C10.3897 0.829018 10.1989 0.75 10 0.75C9.80109 0.75 9.61032 0.829018 9.46967 0.96967C9.32902 1.11032 9.25 1.30109 9.25 1.5V1.75H4.75V1.5C4.75 1.30109 4.67098 1.11032 4.53033 0.96967C4.38968 0.829018 4.19891 0.75 4 0.75C3.80109 0.75 3.61032 0.829018 3.46967 0.96967C3.32902 1.11032 3.25 1.30109 3.25 1.5V1.75H2C1.66848 1.75 1.35054 1.8817 1.11612 2.11612C0.881696 2.35054 0.75 2.66848 0.75 3V13C0.75 13.3315 0.881696 13.6495 1.11612 13.8839C1.35054 14.1183 1.66848 14.25 2 14.25H12C12.3315 14.25 12.6495 14.1183 12.8839 13.8839C13.1183 13.6495 13.25 13.3315 13.25 13V3C13.25 2.66848 13.1183 2.35054 12.8839 2.11612C12.6495 1.8817 12.3315 1.75 12 1.75ZM3.25 3.25C3.25 3.44891 3.32902 3.63968 3.46967 3.78033C3.61032 3.92098 3.80109 4 4 4C4.19891 4 4.38968 3.92098 4.53033 3.78033C4.67098 3.63968 4.75 3.44891 4.75 3.25H9.25C9.25 3.44891 9.32902 3.63968 9.46967 3.78033C9.61032 3.92098 9.80109 4 10 4C10.1989 4 10.3897 3.92098 10.5303 3.78033C10.671 3.63968 10.75 3.44891 10.75 3.25H11.75V4.75H2.25V3.25H3.25ZM2.25 12.75V6.25H11.75V12.75H2.25Z"
				fill="#7A4504" />
		</symbol>

		<symbol width="14" height="12" viewBox="0 0 14 12" fill="none"
			xmlns="http://www.w3.org/2000/svg" id="arrow-right">
			<path
				d="M13.0306 6.53061L8.53063 11.0306C8.38973 11.1715 8.19863 11.2507 7.99938 11.2507C7.80012 11.2507 7.60902 11.1715 7.46813 11.0306C7.32723 10.8897 7.24807 10.6986 7.24807 10.4994C7.24807 10.3001 7.32723 10.109 7.46813 9.96811L10.6875 6.74999H1.5C1.30109 6.74999 1.11032 6.67097 0.96967 6.53032C0.829018 6.38967 0.75 6.1989 0.75 5.99999C0.75 5.80108 0.829018 5.61031 0.96967 5.46966C1.11032 5.329 1.30109 5.24999 1.5 5.24999H10.6875L7.46937 2.02999C7.32848 1.88909 7.24932 1.69799 7.24932 1.49874C7.24932 1.29948 7.32848 1.10838 7.46937 0.967487C7.61027 0.826591 7.80137 0.747437 8.00062 0.747437C8.19988 0.747437 8.39098 0.826591 8.53187 0.967487L13.0319 5.46749C13.1018 5.53726 13.1573 5.62016 13.1951 5.71142C13.2329 5.80269 13.2523 5.90052 13.2522 5.99931C13.252 6.09809 13.2324 6.19588 13.1944 6.28706C13.1564 6.37824 13.1007 6.46101 13.0306 6.53061Z"
				fill="#7A4504" />
		</symbol>

		<symbol width="20" height="20" viewBox="0 0 20 20" fill="none"
			xmlns="http://www.w3.org/2000/svg" id="user-plus">
			<path
				d="M20.0002 10.6251C20.0002 10.8737 19.9014 11.1122 19.7256 11.288C19.5498 11.4638 19.3113 11.5626 19.0627 11.5626H18.4377V12.1876C18.4377 12.4362 18.3389 12.6747 18.1631 12.8505C17.9873 13.0263 17.7488 13.1251 17.5002 13.1251C17.2515 13.1251 17.0131 13.0263 16.8373 12.8505C16.6615 12.6747 16.5627 12.4362 16.5627 12.1876V11.5626H15.9377C15.689 11.5626 15.4506 11.4638 15.2748 11.288C15.099 11.1122 15.0002 10.8737 15.0002 10.6251C15.0002 10.3765 15.099 10.138 15.2748 9.96219C15.4506 9.78638 15.689 9.68761 15.9377 9.68761H16.5627V9.06261C16.5627 8.81397 16.6615 8.57551 16.8373 8.39969C17.0131 8.22388 17.2515 8.12511 17.5002 8.12511C17.7488 8.12511 17.9873 8.22388 18.1631 8.39969C18.3389 8.57551 18.4377 8.81397 18.4377 9.06261V9.68761H19.0627C19.3113 9.68761 19.5498 9.78638 19.7256 9.96219C19.9014 10.138 20.0002 10.3765 20.0002 10.6251ZM15.7181 15.022C15.8781 15.2124 15.9559 15.4586 15.9343 15.7063C15.9128 15.9541 15.7937 16.1831 15.6033 16.3431C15.4129 16.503 15.1667 16.5808 14.919 16.5593C14.6712 16.5377 14.4422 16.4186 14.2822 16.2282C13.2127 14.9548 11.3283 13.4376 8.43768 13.4376C6.18065 13.4376 4.10487 14.4282 2.59315 16.2282C2.43319 16.4186 2.20414 16.5377 1.95639 16.5593C1.70863 16.5808 1.46247 16.503 1.27205 16.3431C1.08164 16.1831 0.962563 15.9541 0.941026 15.7063C0.919488 15.4586 0.997252 15.2124 1.15721 15.022C2.17575 13.7919 3.48243 12.8324 4.96112 12.229C4.04161 11.5061 3.37033 10.5145 3.04069 9.39228C2.71105 8.27004 2.73945 7.07295 3.12193 5.9676C3.50441 4.86225 4.22196 3.90362 5.17471 3.22512C6.12746 2.54663 7.26802 2.18201 8.43768 2.18201C9.60734 2.18201 10.7479 2.54663 11.7007 3.22512C12.6534 3.90362 13.3709 4.86225 13.7534 5.9676C14.1359 7.07295 14.1643 8.27004 13.8347 9.39228C13.505 10.5145 12.8337 11.5061 11.9142 12.229C13.3931 12.8322 14.6998 13.7917 15.7181 15.022ZM8.43768 11.5626C9.17936 11.5626 9.90438 11.3427 10.5211 10.9306C11.1378 10.5186 11.6184 9.93289 11.9022 9.24767C12.1861 8.56245 12.2603 7.80845 12.1156 7.08102C11.9709 6.35359 11.6138 5.6854 11.0893 5.16096C10.5649 4.63651 9.8967 4.27936 9.16927 4.13466C8.44184 3.98997 7.68784 4.06423 7.00262 4.34806C6.31739 4.63189 5.73172 5.11253 5.31967 5.72922C4.90761 6.3459 4.68768 7.07093 4.68768 7.81261C4.68871 8.80685 5.08413 9.76008 5.78717 10.4631C6.49021 11.1662 7.44344 11.5616 8.43768 11.5626Z"
				fill="#0D6EFD" />
		</symbol>

		<symbol width="32" height="32" viewBox="0 0 32 32" fill="none"
			xmlns="http://www.w3.org/2000/svg" id="three-dots">
			<path
				d="M18 16C18 16.3956 17.8827 16.7822 17.6629 17.1111C17.4432 17.44 17.1308 17.6964 16.7654 17.8478C16.3999 17.9991 15.9978 18.0387 15.6098 17.9616C15.2219 17.8844 14.8655 17.6939 14.5858 17.4142C14.3061 17.1345 14.1156 16.7781 14.0384 16.3902C13.9613 16.0022 14.0009 15.6001 14.1522 15.2346C14.3036 14.8692 14.56 14.5568 14.8889 14.3371C15.2178 14.1173 15.6044 14 16 14C16.5304 14 17.0391 14.2107 17.4142 14.5858C17.7893 14.9609 18 15.4696 18 16ZM7.5 14C7.10444 14 6.71776 14.1173 6.38886 14.3371C6.05996 14.5568 5.80362 14.8692 5.65224 15.2346C5.50087 15.6001 5.46126 16.0022 5.53843 16.3902C5.6156 16.7781 5.80608 17.1345 6.08579 17.4142C6.36549 17.6939 6.72186 17.8844 7.10982 17.9616C7.49778 18.0387 7.89992 17.9991 8.26537 17.8478C8.63082 17.6964 8.94318 17.44 9.16294 17.1111C9.3827 16.7822 9.5 16.3956 9.5 16C9.5 15.4696 9.28929 14.9609 8.91421 14.5858C8.53914 14.2107 8.03043 14 7.5 14ZM24.5 14C24.1044 14 23.7178 14.1173 23.3889 14.3371C23.06 14.5568 22.8036 14.8692 22.6522 15.2346C22.5009 15.6001 22.4613 16.0022 22.5384 16.3902C22.6156 16.7781 22.8061 17.1345 23.0858 17.4142C23.3655 17.6939 23.7219 17.8844 24.1098 17.9616C24.4978 18.0387 24.8999 17.9991 25.2654 17.8478C25.6308 17.6964 25.9432 17.44 26.1629 17.1111C26.3827 16.7822 26.5 16.3956 26.5 16C26.5 15.4696 26.2893 14.9609 25.9142 14.5858C25.5391 14.2107 25.0304 14 24.5 14Z"
				fill="#344054" />
		</symbol>

		<symbol width="16" height="14" viewBox="0 0 16 14" fill="none"
			xmlns="http://www.w3.org/2000/svg" id="settings">
			<path
				d="M8 3.74999C7.35722 3.74999 6.72886 3.9406 6.1944 4.29772C5.65994 4.65483 5.24338 5.16241 4.9974 5.75627C4.75141 6.35013 4.68705 7.0036 4.81245 7.63404C4.93785 8.26448 5.24739 8.84357 5.70191 9.29809C6.15643 9.75261 6.73552 10.0621 7.36596 10.1875C7.9964 10.3129 8.64987 10.2486 9.24373 10.0026C9.83759 9.75662 10.3452 9.34006 10.7023 8.8056C11.0594 8.27114 11.25 7.64278 11.25 6.99999C11.249 6.13835 10.9063 5.31227 10.297 4.70299C9.68773 4.09372 8.86165 3.75099 8 3.74999ZM8 8.74999C7.65389 8.74999 7.31554 8.64736 7.02776 8.45507C6.73997 8.26277 6.51567 7.98946 6.38322 7.66969C6.25076 7.34992 6.21611 6.99805 6.28363 6.65859C6.35115 6.31912 6.51783 6.0073 6.76257 5.76256C7.00731 5.51782 7.31913 5.35114 7.6586 5.28362C7.99806 5.2161 8.34993 5.25075 8.6697 5.3832C8.98947 5.51566 9.26278 5.73996 9.45508 6.02775C9.64737 6.31553 9.75 6.65388 9.75 6.99999C9.75 7.46412 9.56563 7.90924 9.23744 8.23743C8.90925 8.56562 8.46413 8.74999 8 8.74999ZM15.1163 5.65187C15.0951 5.54623 15.0514 5.44639 14.9882 5.35914C14.925 5.27188 14.8438 5.19927 14.75 5.14624L13.0131 4.15562L13.0063 2.19874C13.0059 2.09017 12.9819 1.98297 12.9361 1.88456C12.8902 1.78615 12.8235 1.69886 12.7406 1.62874C12.0407 1.03654 11.2348 0.582475 10.3656 0.290619C10.2665 0.257176 10.1614 0.244848 10.0572 0.254428C9.95305 0.264008 9.85201 0.295283 9.76063 0.346244L8 1.32937L6.23938 0.345619C6.14788 0.294378 6.04664 0.262897 5.94222 0.253208C5.83779 0.243519 5.7325 0.255838 5.63313 0.289369C4.76373 0.582438 3.95781 1.03778 3.25813 1.63124C3.17551 1.70129 3.10904 1.78839 3.06329 1.88657C3.01755 1.98476 2.99361 2.09168 2.99313 2.19999L2.98438 4.15874L1.25 5.14687C1.1562 5.2001 1.07498 5.27293 1.01188 5.36041C0.948782 5.44788 0.905293 5.54794 0.88438 5.65374C0.707811 6.54319 0.707811 7.45867 0.88438 8.34812C0.905459 8.4537 0.949024 8.55351 1.01211 8.64076C1.0752 8.72801 1.15634 8.80065 1.25 8.85374L2.98875 9.84437L2.99563 11.8012C2.99601 11.9098 3.01995 12.017 3.06582 12.1154C3.11168 12.2138 3.17836 12.3011 3.26125 12.3712C3.96119 12.9634 4.7671 13.4175 5.63625 13.7094C5.7354 13.7428 5.84045 13.7551 5.94464 13.7456C6.04883 13.736 6.14987 13.7047 6.24125 13.6537L8 12.6706L9.75875 13.6544C9.85026 13.7056 9.95149 13.7371 10.0559 13.7468C10.1603 13.7565 10.2656 13.7442 10.365 13.7106C11.2344 13.4176 12.0403 12.9622 12.74 12.3687C12.8226 12.2987 12.8891 12.2116 12.9348 12.1134C12.9806 12.0152 13.0045 11.9083 13.005 11.8L13.0138 9.84124L14.7519 8.85312C14.8457 8.79989 14.9269 8.72705 14.99 8.63958C15.0531 8.55211 15.0966 8.45205 15.1175 8.34624C15.2937 7.45672 15.2932 6.54123 15.1163 5.65187ZM13.7019 7.72562L12.0219 8.68062C11.9025 8.74828 11.8041 8.84754 11.7375 8.96749C11.7038 9.02999 11.6681 9.08812 11.6313 9.14749C11.5572 9.26575 11.5176 9.40233 11.5169 9.54187L11.5081 11.4375C11.1038 11.7418 10.661 11.9912 10.1913 12.1794L8.49438 11.23C8.38248 11.1673 8.25638 11.1344 8.12813 11.1344H8.11C8.03875 11.1344 7.96625 11.1344 7.895 11.1344C7.76098 11.1312 7.62852 11.1638 7.51125 11.2287L5.8125 12.1762C5.34198 11.989 4.89816 11.7406 4.4925 11.4375L4.48563 9.54749C4.48505 9.40774 4.44544 9.27093 4.37125 9.15249C4.335 9.09374 4.29875 9.03312 4.265 8.97249C4.19834 8.85328 4.10018 8.75469 3.98125 8.68749L2.3 7.72687C2.23469 7.24491 2.23469 6.75633 2.3 6.27437L3.98 5.31937C4.09917 5.25172 4.19752 5.15272 4.26438 5.03312C4.29813 4.97062 4.33375 4.91187 4.37063 4.85249C4.4447 4.73424 4.48431 4.59766 4.485 4.45812L4.49188 2.56249C4.89635 2.25911 5.33915 2.0105 5.80875 1.82312L7.50563 2.77249C7.62284 2.83825 7.75566 2.87108 7.89 2.86749C7.96125 2.86749 8.03375 2.86749 8.105 2.86749C8.23903 2.87067 8.37149 2.83809 8.48876 2.77312L10.1875 1.82374C10.658 2.01097 11.1018 2.25936 11.5075 2.56249L11.5144 4.45249C11.515 4.59225 11.5546 4.72905 11.6288 4.84749C11.665 4.90624 11.7013 4.96687 11.735 5.02749C11.8017 5.14671 11.8998 5.2453 12.0188 5.31249L13.7 6.27062C13.7662 6.75332 13.7668 7.24275 13.7019 7.72562Z"
				fill="#344054" />
		</symbol>

		<symbol width="24" height="18" viewBox="0 0 24 18" fill="none"
			xmlns="http://www.w3.org/2000/svg" id="flgt">
			<path
				d="M21.375 16.25C21.375 16.5484 21.2565 16.8345 21.0455 17.0455C20.8345 17.2565 20.5484 17.375 20.25 17.375H6.75C6.45163 17.375 6.16548 17.2565 5.95451 17.0455C5.74353 16.8345 5.625 16.5484 5.625 16.25C5.625 15.9516 5.74353 15.6655 5.95451 15.4545C6.16548 15.2435 6.45163 15.125 6.75 15.125H20.25C20.5484 15.125 20.8345 15.2435 21.0455 15.4545C21.2565 15.6655 21.375 15.9516 21.375 16.25ZM23.625 8.75V11C23.625 11.2984 23.5065 11.5845 23.2955 11.7955C23.0845 12.0065 22.7984 12.125 22.5 12.125H5.72531C4.83719 12.1291 3.97174 11.8447 3.25925 11.3144C2.54676 10.7842 2.02576 10.0369 1.77469 9.185L0.455626 4.78906C0.371619 4.5092 0.354183 4.21358 0.40471 3.92578C0.455236 3.63798 0.572327 3.36597 0.74664 3.13146C0.920953 2.89695 1.14766 2.70642 1.40868 2.57509C1.6697 2.44375 1.9578 2.37523 2.25 2.375H3C3.29814 2.37502 3.58407 2.49337 3.795 2.70406L5.71875 4.625H7.15031L6.46875 2.5925C6.37482 2.31048 6.34928 2.01016 6.39426 1.71633C6.43923 1.42249 6.55342 1.14356 6.72741 0.902543C6.90139 0.661525 7.13019 0.465327 7.39493 0.330136C7.65966 0.194944 7.95275 0.124633 8.25 0.125001H9C9.29813 0.125015 9.58407 0.243369 9.795 0.454064L13.9688 4.625H19.5C20.5936 4.62624 21.6421 5.06124 22.4154 5.83456C23.1888 6.60787 23.6238 7.65636 23.625 8.75ZM21.375 8.75C21.375 8.25272 21.1775 7.77581 20.8258 7.42418C20.4742 7.07255 19.9973 6.875 19.5 6.875H13.5C13.2019 6.87499 12.9159 6.75663 12.705 6.54594L8.89031 2.73031L9.77813 5.39469C9.83442 5.56382 9.84973 5.7439 9.82277 5.92011C9.79582 6.09631 9.72739 6.26359 9.62311 6.40815C9.51882 6.55272 9.38168 6.67043 9.22298 6.7516C9.06428 6.83277 8.88857 6.87506 8.71031 6.875H5.25C5.10222 6.87512 4.95586 6.84612 4.8193 6.78965C4.68273 6.73319 4.55862 6.65038 4.45406 6.54594L2.85 4.94L3.92906 8.53906C4.04352 8.92616 4.28051 9.26567 4.60441 9.50657C4.92832 9.74747 5.32165 9.87675 5.72531 9.875H21.375V8.75Z"
				fill="#344054" />
		</symbol>

		<symbol width="20" height="20" viewBox="0 0 20 20" fill="none"
			xmlns="http://www.w3.org/2000/svg" id="flight-landing">
			<path
				d="M19.6875 16.8745C19.6875 17.1231 19.5887 17.3616 19.4129 17.5374C19.2371 17.7132 18.9986 17.812 18.75 17.812H7.5C7.25136 17.812 7.0129 17.7132 6.83709 17.5374C6.66127 17.3616 6.5625 17.1231 6.5625 16.8745C6.5625 16.6259 6.66127 16.3874 6.83709 16.2116C7.0129 16.0358 7.25136 15.937 7.5 15.937H18.75C18.9986 15.937 19.2371 16.0358 19.4129 16.2116C19.5887 16.3874 19.6875 16.6259 19.6875 16.8745ZM17.2469 14.9643L3.44844 11.1003C2.72691 10.8966 2.09145 10.4632 1.63834 9.86592C1.18524 9.26859 0.9392 8.53985 0.937501 7.79012V3.7495C0.937194 3.50178 0.995787 3.25755 1.10845 3.03694C1.22111 2.81632 1.3846 2.62566 1.58545 2.48067C1.7863 2.33568 2.01874 2.24052 2.26361 2.20304C2.50847 2.16557 2.75873 2.18685 2.99375 2.26512L3.42188 2.40809C3.55613 2.45283 3.67852 2.52737 3.77986 2.62614C3.8812 2.72491 3.95886 2.84534 4.00703 2.9784L4.78125 5.12372L6.5625 5.63153V3.7495C6.56219 3.50178 6.62079 3.25755 6.73345 3.03694C6.84611 2.81632 7.0096 2.62566 7.21045 2.48067C7.4113 2.33568 7.64374 2.24052 7.88861 2.20304C8.13347 2.16557 8.38373 2.18685 8.61875 2.26512L9.04688 2.40809C9.1736 2.45033 9.28982 2.51917 9.38778 2.60998C9.48573 2.70079 9.56315 2.81149 9.61485 2.93465L11.3141 6.98544L15.9234 8.27372C16.6461 8.47688 17.2827 8.91041 17.7365 9.50844C18.1903 10.1065 18.4364 10.8363 18.4375 11.587V14.062C18.4374 14.2067 18.4039 14.3494 18.3395 14.479C18.2751 14.6085 18.1816 14.7214 18.0663 14.8088C17.9509 14.8962 17.817 14.9557 17.6748 14.9827C17.5327 15.0097 17.3862 15.0034 17.2469 14.9643ZM16.5625 11.587C16.5618 11.2456 16.4497 10.9138 16.2431 10.6421C16.0365 10.3703 15.7467 10.1735 15.418 10.0815L10.3727 8.67137C10.2365 8.6334 10.1106 8.56512 10.0046 8.47163C9.89848 8.37814 9.81493 8.26187 9.76016 8.13153L8.4375 4.97684V6.8745C8.43738 7.01949 8.40363 7.16248 8.3389 7.29223C8.27417 7.42197 8.18023 7.53493 8.06446 7.62223C7.94869 7.70953 7.81425 7.76879 7.67171 7.79534C7.52917 7.8219 7.38241 7.81503 7.24297 7.77528L3.80547 6.79637C3.66256 6.75571 3.53137 6.68165 3.4227 6.58032C3.31403 6.47899 3.23101 6.35328 3.18047 6.21356L2.8125 5.19325V7.79012C2.81306 8.13116 2.9248 8.46272 3.13077 8.73453C3.33675 9.00635 3.62573 9.20359 3.95391 9.29637L16.5625 12.8261V11.587Z"
				fill="#475367" />
		</symbol>


		<symbol width="20" height="20" viewBox="0 0 20 20" fill="none"
			xmlns="http://www.w3.org/2000/svg" id="flight-take-off">
			<path
				d="M14.0624 16.8748C14.0624 17.1235 13.9636 17.3619 13.7878 17.5377C13.612 17.7135 13.3735 17.8123 13.1249 17.8123H1.87487C1.62623 17.8123 1.38777 17.7135 1.21196 17.5377C1.03614 17.3619 0.937369 17.1235 0.937369 16.8748C0.937369 16.6262 1.03614 16.3877 1.21196 16.2119C1.38777 16.0361 1.62623 15.9373 1.87487 15.9373H13.1249C13.3735 15.9373 13.612 16.0361 13.7878 16.2119C13.9636 16.3877 14.0624 16.6262 14.0624 16.8748ZM19.671 7.02169C19.6466 7.15238 19.5947 7.27639 19.5187 7.38549C19.4428 7.4946 19.3445 7.58629 19.2303 7.6545L7.71471 14.5311L7.70456 14.5365C7.06625 14.9113 6.32351 15.0687 5.58806 14.985C4.85261 14.9013 4.16422 14.5811 3.62643 14.0725L3.61159 14.0584L0.799087 11.3045C0.613843 11.128 0.474782 10.9087 0.394121 10.6659C0.31346 10.423 0.293668 10.1641 0.336484 9.91184C0.379299 9.65958 0.483413 9.42169 0.639676 9.21907C0.79594 9.01646 0.999572 8.85532 1.23268 8.74981L1.46237 8.63731C1.68449 8.52857 1.94059 8.512 2.17487 8.59122L4.24518 9.28966L5.35065 8.62091L3.93893 7.24825C3.74796 7.07136 3.60421 6.84956 3.52074 6.60299C3.43727 6.35643 3.41672 6.09292 3.46096 5.8364C3.50521 5.57988 3.61283 5.33848 3.77407 5.13412C3.93531 4.92976 4.14505 4.76892 4.38424 4.66622L4.42174 4.65059L4.98034 4.43966C5.19194 4.36059 5.42498 4.36059 5.63659 4.43966L9.71002 5.93731L13.6108 3.60919C14.3169 3.18807 15.1511 3.03526 15.9606 3.17872C16.7702 3.32219 17.501 3.75232 18.0194 4.39044C18.0243 4.39582 18.0287 4.40157 18.0327 4.40762L19.4889 6.27325C19.5708 6.37785 19.6294 6.49873 19.6608 6.6278C19.6922 6.75688 19.6957 6.89117 19.671 7.02169ZM17.3577 6.58887L16.5624 5.56934C16.3266 5.28202 15.9957 5.08872 15.6296 5.02451C15.2635 4.96029 14.8865 5.02942 14.5671 5.21934L10.2881 7.77403C10.1683 7.84627 10.0339 7.89077 9.89466 7.90429C9.75542 7.91781 9.61492 7.9 9.48346 7.85216L5.88971 6.52872L7.53034 8.12247C7.63307 8.22234 7.71155 8.34443 7.75974 8.47936C7.80794 8.61428 7.82456 8.75847 7.80834 8.90082C7.79212 9.04318 7.74349 9.17992 7.66618 9.30055C7.58887 9.42118 7.48494 9.52249 7.36237 9.59669L4.84362 11.1162C4.72738 11.1862 4.59732 11.2302 4.46243 11.245C4.32755 11.2598 4.19105 11.2452 4.06237 11.2022L3.0194 10.8506L4.91862 12.71C5.16281 12.9382 5.47407 13.0816 5.8062 13.1189C6.13834 13.1561 6.47365 13.0854 6.76237 12.917L17.3577 6.58887Z"
				fill="#475367" />
		</symbol>

		<symbol width="20" height="20" viewBox="0 0 20 20" fill="none"
			xmlns="http://www.w3.org/2000/svg" id="baggage">
			<path
				d="M9.0625 7.5V13.75C9.0625 13.9986 8.96373 14.2371 8.78791 14.4129C8.6121 14.5887 8.37364 14.6875 8.125 14.6875C7.87636 14.6875 7.6379 14.5887 7.46209 14.4129C7.28627 14.2371 7.1875 13.9986 7.1875 13.75V7.5C7.1875 7.25136 7.28627 7.0129 7.46209 6.83709C7.6379 6.66127 7.87636 6.5625 8.125 6.5625C8.37364 6.5625 8.6121 6.66127 8.78791 6.83709C8.96373 7.0129 9.0625 7.25136 9.0625 7.5ZM10.9375 7.5V13.75C10.9375 13.9986 11.0363 14.2371 11.2121 14.4129C11.3879 14.5887 11.6264 14.6875 11.875 14.6875C12.1236 14.6875 12.3621 14.5887 12.5379 14.4129C12.7137 14.2371 12.8125 13.9986 12.8125 13.75V7.5C12.8125 7.25136 12.7137 7.0129 12.5379 6.83709C12.3621 6.66127 12.1236 6.5625 11.875 6.5625C11.6264 6.5625 11.3879 6.66127 11.2121 6.83709C11.0363 7.0129 10.9375 7.25136 10.9375 7.5ZM16.5625 5V16.25C16.5625 16.6644 16.3979 17.0618 16.1049 17.3549C15.8118 17.6479 15.4144 17.8125 15 17.8125H14.0625V18.75C14.0625 18.9986 13.9637 19.2371 13.7879 19.4129C13.6121 19.5887 13.3736 19.6875 13.125 19.6875C12.8764 19.6875 12.6379 19.5887 12.4621 19.4129C12.2863 19.2371 12.1875 18.9986 12.1875 18.75V17.8125H7.8125V18.75C7.8125 18.9986 7.71373 19.2371 7.53791 19.4129C7.3621 19.5887 7.12364 19.6875 6.875 19.6875C6.62636 19.6875 6.3879 19.5887 6.21209 19.4129C6.03627 19.2371 5.9375 18.9986 5.9375 18.75V17.8125H5C4.5856 17.8125 4.18817 17.6479 3.89515 17.3549C3.60212 17.0618 3.4375 16.6644 3.4375 16.25V5C3.4375 4.5856 3.60212 4.18817 3.89515 3.89515C4.18817 3.60212 4.5856 3.4375 5 3.4375H6.5625V2.1875C6.5625 1.60734 6.79297 1.05094 7.2032 0.640704C7.61344 0.230468 8.16984 0 8.75 0L11.25 0C11.8302 0 12.3866 0.230468 12.7968 0.640704C13.207 1.05094 13.4375 1.60734 13.4375 2.1875V3.4375H15C15.4144 3.4375 15.8118 3.60212 16.1049 3.89515C16.3979 4.18817 16.5625 4.5856 16.5625 5ZM8.4375 3.4375H11.5625V2.1875C11.5625 2.10462 11.5296 2.02513 11.471 1.96653C11.4124 1.90792 11.3329 1.875 11.25 1.875H8.75C8.66712 1.875 8.58763 1.90792 8.52903 1.96653C8.47042 2.02513 8.4375 2.10462 8.4375 2.1875V3.4375ZM14.6875 5.3125H5.3125V15.9375H14.6875V5.3125Z"
				fill="#475367" />
		</symbol>
		<symbol width="16" height="16" viewBox="0 0 16 16" fill="none" id="cancel"
			xmlns="http://www.w3.org/2000/svg">
			<path
				d="M15.5459 13.954C15.7572 14.1653 15.876 14.452 15.876 14.7509C15.876 15.0497 15.7572 15.3364 15.5459 15.5477C15.3346 15.7591 15.0479 15.8778 14.749 15.8778C14.4501 15.8778 14.1635 15.7591 13.9521 15.5477L7.99996 9.59367L2.0459 15.5459C1.83455 15.7572 1.54791 15.8759 1.24902 15.8759C0.950136 15.8759 0.663491 15.7572 0.452147 15.5459C0.240802 15.3345 0.12207 15.0479 0.12207 14.749C0.12207 14.4501 0.240803 14.1635 0.452147 13.9521L6.40621 7.99992L0.454022 2.04586C0.242677 1.83451 0.123945 1.54787 0.123945 1.24898C0.123945 0.950097 0.242677 0.663452 0.454022 0.452108C0.665366 0.240763 0.95201 0.122031 1.2509 0.122031C1.54978 0.122031 1.83643 0.240763 2.04777 0.452108L7.99996 6.40617L13.954 0.45117C14.1654 0.239826 14.452 0.121094 14.7509 0.121094C15.0498 0.121094 15.3364 0.239826 15.5478 0.45117C15.7591 0.662514 15.8778 0.949159 15.8778 1.24804C15.8778 1.54693 15.7591 1.83358 15.5478 2.04492L9.59371 7.99992L15.5459 13.954Z"
				fill="#9E0A05" />
		</symbol>
		<symbol width="20" height="20" viewBox="0 0 20 20" fill="none"
			xmlns="http://www.w3.org/2000/svg" id="film">
			<path
				d="M16.8752 7.81217H10.3846L16.4893 6.20045C16.6089 6.1689 16.7211 6.114 16.8194 6.0389C16.9177 5.96379 17.0002 5.86998 17.062 5.76286C17.1239 5.65574 17.164 5.53744 17.1799 5.41477C17.1958 5.2921 17.1874 5.16748 17.1549 5.04811L16.5174 2.70436C16.4079 2.30954 16.1472 1.97378 15.7919 1.76979C15.4365 1.5658 15.0152 1.51001 14.619 1.61451L2.7182 4.75514C2.51993 4.8068 2.33394 4.89745 2.17109 5.02179C2.00825 5.14614 1.87181 5.30169 1.76976 5.47936C1.66751 5.65466 1.60136 5.84865 1.5752 6.0499C1.54904 6.25116 1.56339 6.45561 1.61742 6.65123L2.18773 8.74967V15.6247C2.18773 16.0391 2.35235 16.4365 2.64537 16.7295C2.9384 17.0225 3.33583 17.1872 3.75023 17.1872H16.2502C16.6646 17.1872 17.0621 17.0225 17.3551 16.7295C17.6481 16.4365 17.8127 16.0391 17.8127 15.6247V8.74967C17.8127 8.50103 17.714 8.26257 17.5381 8.08676C17.3623 7.91094 17.1239 7.81217 16.8752 7.81217ZM9.75726 4.83639L11.1862 5.66139L9.15882 6.19654L7.72992 5.37154L9.75726 4.83639ZM14.7924 3.50826L15.0979 4.62936L13.7596 4.98248L12.3307 4.1567L14.7924 3.50826ZM5.15648 6.05123L6.58538 6.87467L3.81976 7.60514L3.51585 6.48404L5.15648 6.05123ZM15.9377 15.3122H4.06273V9.68717H15.9377V15.3122Z"
				fill="#475367" />
		</symbol>

		<symbol width="20" height="20" viewBox="0 0 20 20" fill="none"
			xmlns="http://www.w3.org/2000/svg" id="meal">
			<path
				d="M5.3125 6.87532V3.12532C5.3125 2.87668 5.41127 2.63823 5.58709 2.46241C5.7629 2.28659 6.00136 2.18782 6.25 2.18782C6.49864 2.18782 6.7371 2.28659 6.91291 2.46241C7.08873 2.63823 7.1875 2.87668 7.1875 3.12532V6.87532C7.1875 7.12396 7.08873 7.36242 6.91291 7.53824C6.7371 7.71405 6.49864 7.81282 6.25 7.81282C6.00136 7.81282 5.7629 7.71405 5.58709 7.53824C5.41127 7.36242 5.3125 7.12396 5.3125 6.87532ZM17.1875 3.12532V17.5003C17.1875 17.749 17.0887 17.9874 16.9129 18.1632C16.7371 18.3391 16.4986 18.4378 16.25 18.4378C16.0014 18.4378 15.7629 18.3391 15.5871 18.1632C15.4113 17.9874 15.3125 17.749 15.3125 17.5003V14.0628H11.875C11.6264 14.0628 11.3879 13.9641 11.2121 13.7882C11.0363 13.6124 10.9375 13.374 10.9375 13.1253C10.9668 11.6035 11.1588 10.0891 11.5102 8.60813C12.2984 5.34563 13.8094 3.1511 15.8805 2.26595C16.0229 2.20486 16.1782 2.18004 16.3326 2.19369C16.487 2.20735 16.6356 2.25906 16.7651 2.3442C16.8945 2.42934 17.0009 2.54525 17.0746 2.68157C17.1484 2.81788 17.1871 2.97035 17.1875 3.12532ZM15.3125 4.91595C14.2656 6.01595 13.6719 7.65657 13.3414 9.01438C13.0941 10.0574 12.9316 11.1186 12.8555 12.1878H15.3125V4.91595ZM10 3.0472C9.97928 2.79856 9.86064 2.56833 9.67017 2.40717C9.4797 2.246 9.23302 2.1671 8.98438 2.18782C8.73573 2.20854 8.50551 2.32719 8.34434 2.51765C8.18318 2.70812 8.10428 2.95481 8.125 3.20345L8.4375 6.91126C8.4375 7.49142 8.20703 8.04782 7.7968 8.45806C7.38656 8.86829 6.83016 9.09876 6.25 9.09876C5.66984 9.09876 5.11344 8.86829 4.7032 8.45806C4.29297 8.04782 4.0625 7.49142 4.0625 6.91126L4.375 3.20345C4.38526 3.08033 4.37117 2.9564 4.33353 2.83873C4.2959 2.72107 4.23546 2.61196 4.15566 2.51765C4.07585 2.42334 3.97826 2.34567 3.86844 2.28908C3.75863 2.23249 3.63874 2.19808 3.51562 2.18782C3.39251 2.17756 3.26858 2.19165 3.15091 2.22929C3.03324 2.26692 2.92414 2.32737 2.82983 2.40717C2.73552 2.48697 2.65785 2.58456 2.60126 2.69438C2.54467 2.8042 2.51026 2.92408 2.5 3.0472L2.1875 6.7972C2.1875 6.82376 2.1875 6.84954 2.1875 6.87532C2.189 7.78931 2.49807 8.67619 3.06495 9.39314C3.63182 10.1101 4.4235 10.6154 5.3125 10.8277V17.5003C5.3125 17.749 5.41127 17.9874 5.58709 18.1632C5.7629 18.3391 6.00136 18.4378 6.25 18.4378C6.49864 18.4378 6.7371 18.3391 6.91291 18.1632C7.08873 17.9874 7.1875 17.749 7.1875 17.5003V10.8277C8.0765 10.6154 8.86818 10.1101 9.43505 9.39314C10.0019 8.67619 10.311 7.78931 10.3125 6.87532C10.3125 6.84954 10.3125 6.82376 10.3125 6.7972L10 3.0472Z"
				fill="#475367" />
		</symbol>
		<symbol width="20" height="20" viewBox="0 0 20 20" fill="none"
			xmlns="http://www.w3.org/2000/svg" id="usb">
			<path
				d="M19.625 9.25001L15.875 6.43751C15.7357 6.33304 15.5701 6.26943 15.3967 6.25379C15.2233 6.23816 15.049 6.27112 14.8932 6.34898C14.7375 6.42684 14.6065 6.54653 14.515 6.69463C14.4235 6.84274 14.375 7.0134 14.375 7.18751V9.06251H5.9375V5.93751H7.97344C8.19459 6.56302 8.62975 7.09021 9.20201 7.42591C9.77427 7.76161 10.4468 7.88419 11.1007 7.772C11.7546 7.65981 12.3478 7.32006 12.7754 6.81281C13.203 6.30556 13.4376 5.66346 13.4376 5.00001C13.4376 4.33655 13.203 3.69445 12.7754 3.1872C12.3478 2.67995 11.7546 2.3402 11.1007 2.22801C10.4468 2.11582 9.77427 2.2384 9.20201 2.5741C8.62975 2.9098 8.19459 3.43699 7.97344 4.06251H5.625C5.2106 4.06251 4.81317 4.22713 4.52015 4.52015C4.22712 4.81318 4.0625 5.21061 4.0625 5.62501V9.06251H0.9375C0.68886 9.06251 0.450403 9.16128 0.274587 9.33709C0.098772 9.51291 0 9.75137 0 10C0 10.2486 0.098772 10.4871 0.274587 10.6629C0.450403 10.8387 0.68886 10.9375 0.9375 10.9375H4.0625V14.375C4.0625 14.7894 4.22712 15.1868 4.52015 15.4799C4.81317 15.7729 5.2106 15.9375 5.625 15.9375H7.8125V16.25C7.8125 16.6644 7.97712 17.0618 8.27015 17.3549C8.56317 17.6479 8.9606 17.8125 9.375 17.8125H11.875C12.2894 17.8125 12.6868 17.6479 12.9799 17.3549C13.2729 17.0618 13.4375 16.6644 13.4375 16.25V13.75C13.4375 13.3356 13.2729 12.9382 12.9799 12.6452C12.6868 12.3521 12.2894 12.1875 11.875 12.1875H9.375C8.9606 12.1875 8.56317 12.3521 8.27015 12.6452C7.97712 12.9382 7.8125 13.3356 7.8125 13.75V14.0625H5.9375V10.9375H14.375V12.8125C14.375 12.9866 14.4235 13.1573 14.515 13.3054C14.6065 13.4535 14.7375 13.5732 14.8932 13.651C15.049 13.7289 15.2233 13.7619 15.3967 13.7462C15.5701 13.7306 15.7357 13.667 15.875 13.5625L19.625 10.75C19.7414 10.6627 19.8359 10.5494 19.901 10.4193C19.9661 10.2891 20 10.1455 20 10C20 9.85446 19.9661 9.71092 19.901 9.58074C19.8359 9.45057 19.7414 9.33733 19.625 9.25001ZM10.625 4.06251C10.8104 4.06251 10.9917 4.11749 11.1458 4.2205C11.3 4.32352 11.4202 4.46993 11.4911 4.64124C11.5621 4.81255 11.5807 5.00105 11.5445 5.1829C11.5083 5.36476 11.419 5.53181 11.2879 5.66292C11.1568 5.79403 10.9898 5.88332 10.8079 5.91949C10.626 5.95567 10.4375 5.9371 10.2662 5.86614C10.0949 5.79519 9.94851 5.67502 9.8455 5.52085C9.74248 5.36668 9.6875 5.18543 9.6875 5.00001C9.6875 4.75137 9.78627 4.51291 9.96209 4.33709C10.1379 4.16128 10.3764 4.06251 10.625 4.06251ZM9.6875 14.0625H11.5625V15.9375H9.6875V14.0625ZM16.25 10.9375V9.06251L17.5 10L16.25 10.9375Z"
				fill="#475367" />
		</symbol>

		<symbol width="24" height="24" viewBox="0 0 24 24" fill="none"
			xmlns="http://www.w3.org/2000/svg" id="house">
			<path
				d="M22.5 16.8748H22.125V5.7307L22.7353 5.60039C22.8818 5.57171 23.0212 5.51415 23.1453 5.43106C23.2693 5.34798 23.3756 5.24102 23.4579 5.11644C23.5402 4.99186 23.5969 4.85215 23.6246 4.70544C23.6524 4.55873 23.6506 4.40796 23.6195 4.26193C23.5884 4.1159 23.5286 3.97752 23.4434 3.85486C23.3583 3.7322 23.2496 3.62772 23.1236 3.5475C22.9977 3.46728 22.8571 3.41293 22.7099 3.38762C22.5628 3.36231 22.4121 3.36654 22.2666 3.40008L1.26656 7.90008C0.995421 7.95858 0.755451 8.11519 0.592735 8.33983C0.430019 8.56447 0.35603 8.84131 0.384977 9.11717C0.413924 9.39304 0.543766 9.64849 0.749567 9.83446C0.955369 10.0204 1.22262 10.1238 1.5 10.1248C1.5797 10.1249 1.65919 10.1167 1.73719 10.1004L1.87594 10.0704V16.8748H1.5C1.20163 16.8748 0.915483 16.9933 0.704505 17.2043C0.493526 17.4152 0.375 17.7014 0.375 17.9998C0.375 18.2981 0.493526 18.5843 0.704505 18.7953C0.915483 19.0062 1.20163 19.1248 1.5 19.1248H22.5C22.7984 19.1248 23.0845 19.0062 23.2955 18.7953C23.5065 18.5843 23.625 18.2981 23.625 17.9998C23.625 17.7014 23.5065 17.4152 23.2955 17.2043C23.0845 16.9933 22.7984 16.8748 22.5 16.8748ZM4.125 9.58758L19.875 6.21258V16.8748H18V11.2498C18 10.9514 17.8815 10.6652 17.6705 10.4543C17.4595 10.2433 17.1734 10.1248 16.875 10.1248H7.125C6.82663 10.1248 6.54048 10.2433 6.3295 10.4543C6.11853 10.6652 6 10.9514 6 11.2498V16.8748H4.125V9.58758ZM15.75 13.4998H8.25V12.3748H15.75V13.4998ZM8.25 15.7498H15.75V16.8748H8.25V15.7498Z"
				fill="white" />
		</symbol>

		<symbol width="14" height="18" viewBox="0 0 14 18" fill="none"
			xmlns="http://www.w3.org/2000/svg" id="location">
			<path
				d="M7 4.21875C6.38811 4.21875 5.78997 4.4002 5.2812 4.74014C4.77244 5.08009 4.37591 5.56326 4.14175 6.12857C3.90759 6.69388 3.84632 7.31593 3.9657 7.91606C4.08507 8.51619 4.37972 9.06744 4.81239 9.50011C5.24506 9.93278 5.79631 10.2274 6.39644 10.3468C6.99657 10.4662 7.61862 10.4049 8.18393 10.1708C8.74924 9.93659 9.23241 9.54006 9.57236 9.03129C9.9123 8.52253 10.0938 7.92439 10.0938 7.3125C10.0928 6.49227 9.76657 5.7059 9.18658 5.12592C8.6066 4.54593 7.82023 4.21968 7 4.21875ZM7 8.71875C6.72187 8.71875 6.44999 8.63627 6.21873 8.48175C5.98747 8.32723 5.80723 8.10761 5.70079 7.85065C5.59436 7.59369 5.56651 7.31094 5.62077 7.03815C5.67503 6.76537 5.80896 6.5148 6.00563 6.31813C6.2023 6.12146 6.45287 5.98753 6.72565 5.93327C6.99844 5.87901 7.28119 5.90686 7.53815 6.01329C7.79511 6.11973 8.01473 6.29997 8.16925 6.53123C8.32377 6.76249 8.40625 7.03437 8.40625 7.3125C8.40625 7.68546 8.25809 8.04315 7.99437 8.30687C7.73065 8.57059 7.37296 8.71875 7 8.71875ZM7 0.84375C5.28495 0.845611 3.64068 1.52774 2.42796 2.74046C1.21524 3.95318 0.533111 5.59745 0.53125 7.3125C0.53125 12.7519 6.27156 16.8328 6.51625 17.0037C6.65805 17.1029 6.82693 17.1561 7 17.1561C7.17307 17.1561 7.34195 17.1029 7.48375 17.0037C8.57097 16.2024 9.56568 15.2827 10.4495 14.2615C12.4246 11.9932 13.4688 9.58852 13.4688 7.3125C13.4669 5.59745 12.7848 3.95318 11.572 2.74046C10.3593 1.52774 8.71505 0.845611 7 0.84375ZM9.20078 13.128C8.53038 13.8981 7.79398 14.6082 7 15.2501C6.20602 14.6082 5.46962 13.8981 4.79922 13.128C3.625 11.7682 2.21875 9.65461 2.21875 7.3125C2.21875 6.04443 2.72249 4.8283 3.61915 3.93165C4.5158 3.03499 5.73193 2.53125 7 2.53125C8.26807 2.53125 9.4842 3.03499 10.3809 3.93165C11.2775 4.8283 11.7812 6.04443 11.7812 7.3125C11.7812 9.65461 10.375 11.7682 9.20078 13.128Z"
				fill="#0D6EFD" />
		</symbol>
		<symbol width="18" height="18" viewBox="0 0 18 18" fill="none" id="star"
			xmlns="http://www.w3.org/2000/svg">
			<path
				d="M16.4884 8.0422L13.3173 10.8097L14.2672 14.93C14.3175 15.1454 14.3031 15.3708 14.226 15.5781C14.1488 15.7854 14.0123 15.9654 13.8334 16.0955C13.6545 16.2256 13.4413 16.3001 13.2203 16.3096C12.9993 16.3192 12.7804 16.2634 12.591 16.1492L8.9973 13.9695L5.41136 16.1492C5.22192 16.2634 5.00303 16.3192 4.78205 16.3096C4.56107 16.3001 4.34781 16.2256 4.16894 16.0955C3.99006 15.9654 3.85351 15.7854 3.77635 15.5781C3.69919 15.3708 3.68485 15.1454 3.73511 14.93L4.68363 10.8139L1.51183 8.0422C1.34407 7.89752 1.22276 7.70652 1.16312 7.49317C1.10348 7.27981 1.10815 7.0536 1.17656 6.84289C1.24497 6.63218 1.37407 6.44636 1.54766 6.30873C1.72126 6.1711 1.93162 6.08779 2.15238 6.06923L6.33316 5.70712L7.96511 1.81463C8.05034 1.61038 8.19409 1.43591 8.37826 1.3132C8.56243 1.19048 8.7788 1.125 9.00011 1.125C9.22143 1.125 9.43779 1.19048 9.62197 1.3132C9.80614 1.43591 9.94989 1.61038 10.0351 1.81463L11.672 5.70712L15.8514 6.06923C16.0721 6.08779 16.2825 6.1711 16.4561 6.30873C16.6297 6.44636 16.7588 6.63218 16.8272 6.84289C16.8956 7.0536 16.9003 7.27981 16.8406 7.49317C16.781 7.70652 16.6597 7.89752 16.4919 8.0422H16.4884Z"
				fill="#F4B93E" />
		</symbol>

		<symbol width="18" height="14" viewBox="0 0 18 14" fill="none"
			xmlns="http://www.w3.org/2000/svg" id="size">
			<path
				d="M14.625 3.0625H1.6875V1.375C1.6875 1.22582 1.62824 1.08274 1.52275 0.977253C1.41726 0.871763 1.27418 0.8125 1.125 0.8125C0.975816 0.8125 0.832742 0.871763 0.727252 0.977253C0.621763 1.08274 0.5625 1.22582 0.5625 1.375V12.625C0.5625 12.7742 0.621763 12.9173 0.727252 13.0227C0.832742 13.1282 0.975816 13.1875 1.125 13.1875C1.27418 13.1875 1.41726 13.1282 1.52275 13.0227C1.62824 12.9173 1.6875 12.7742 1.6875 12.625V10.375H16.3125V12.625C16.3125 12.7742 16.3718 12.9173 16.4773 13.0227C16.5827 13.1282 16.7258 13.1875 16.875 13.1875C17.0242 13.1875 17.1673 13.1282 17.2727 13.0227C17.3782 12.9173 17.4375 12.7742 17.4375 12.625V5.875C17.4375 5.12908 17.1412 4.41371 16.6137 3.88626C16.0863 3.35882 15.3709 3.0625 14.625 3.0625ZM1.6875 4.1875H6.75V9.25H1.6875V4.1875Z"
				fill="#344054" />
		</symbol>

		<symbol width="18" height="18" viewBox="0 0 18 18" fill="none" id="pool"
			xmlns="http://www.w3.org/2000/svg">
			<path
				d="M5.875 10.6711C6.12364 10.6711 6.3621 10.5723 6.53791 10.3965C6.71373 10.2207 6.8125 9.98223 6.8125 9.73359V9.625H11.1875V9.88203C11.1875 10.1307 11.2863 10.3691 11.4621 10.5449C11.6379 10.7208 11.8764 10.8195 12.125 10.8195C12.3736 10.8195 12.6121 10.7208 12.7879 10.5449C12.9637 10.3691 13.0625 10.1307 13.0625 9.88203V1.5C13.0625 1.25136 12.9637 1.0129 12.7879 0.837087C12.6121 0.661272 12.3736 0.5625 12.125 0.5625C11.8764 0.5625 11.6379 0.661272 11.4621 0.837087C11.2863 1.0129 11.1875 1.25136 11.1875 1.5V2.125H6.8125V1.5C6.8125 1.25136 6.71373 1.0129 6.53791 0.837087C6.3621 0.661272 6.12364 0.5625 5.875 0.5625C5.62636 0.5625 5.3879 0.661272 5.21209 0.837087C5.03627 1.0129 4.9375 1.25136 4.9375 1.5V9.73359C4.9375 9.98223 5.03627 10.2207 5.21209 10.3965C5.3879 10.5723 5.62636 10.6711 5.875 10.6711ZM6.8125 7.75V6.8125H11.1875V7.75H6.8125ZM11.1875 4V4.9375H6.8125V4H11.1875ZM0.5625 11.8125C0.5625 11.5639 0.661272 11.3254 0.837087 11.1496C1.0129 10.9738 1.25136 10.875 1.5 10.875C2.72109 10.875 3.375 11.3086 3.89531 11.6562C4.31719 11.9375 4.59844 12.125 5.25 12.125C5.90156 12.125 6.18203 11.9391 6.60469 11.6562C7.12734 11.307 7.77656 10.875 8.99922 10.875C10.2219 10.875 10.8742 11.3086 11.3945 11.6562C11.8172 11.9375 12.0977 12.125 12.75 12.125C13.4023 12.125 13.6828 11.9391 14.1047 11.6562C14.6281 11.307 15.2766 10.875 16.5 10.875C16.7486 10.875 16.9871 10.9738 17.1629 11.1496C17.3387 11.3254 17.4375 11.5639 17.4375 11.8125C17.4375 12.0611 17.3387 12.2996 17.1629 12.4754C16.9871 12.6512 16.7486 12.75 16.5 12.75C15.8461 12.75 15.5672 12.9359 15.1445 13.2188C14.6219 13.568 13.9727 14 12.75 14C11.5273 14 10.875 13.5664 10.3547 13.2188C9.93203 12.9375 9.65156 12.75 8.99922 12.75C8.34687 12.75 8.06719 12.9359 7.64453 13.2188C7.12188 13.568 6.47266 14 5.25 14C4.02734 14 3.375 13.5664 2.85469 13.2188C2.43281 12.9375 2.15156 12.75 1.5 12.75C1.25136 12.75 1.0129 12.6512 0.837087 12.4754C0.661272 12.2996 0.5625 12.0611 0.5625 11.8125ZM17.4375 15.25C17.4375 15.4986 17.3387 15.7371 17.1629 15.9129C16.9871 16.0887 16.7486 16.1875 16.5 16.1875C15.8461 16.1875 15.5672 16.3734 15.1445 16.6562C14.6219 17.0055 13.9727 17.4375 12.75 17.4375C11.5273 17.4375 10.875 17.0039 10.3547 16.6562C9.93203 16.375 9.65156 16.1875 8.99922 16.1875C8.34687 16.1875 8.06719 16.3734 7.64453 16.6562C7.12188 17.0055 6.47266 17.4375 5.25 17.4375C4.02734 17.4375 3.375 17.0039 2.85469 16.6562C2.43281 16.375 2.15156 16.1875 1.5 16.1875C1.25136 16.1875 1.0129 16.0887 0.837087 15.9129C0.661272 15.7371 0.5625 15.4986 0.5625 15.25C0.5625 15.0014 0.661272 14.7629 0.837087 14.5871C1.0129 14.4113 1.25136 14.3125 1.5 14.3125C2.72109 14.3125 3.375 14.7461 3.89531 15.0938C4.31719 15.375 4.59844 15.5625 5.25 15.5625C5.90156 15.5625 6.18203 15.3766 6.60469 15.0938C7.12734 14.7445 7.77656 14.3125 8.99922 14.3125C10.2219 14.3125 10.8742 14.7461 11.3945 15.0938C11.8172 15.375 12.0977 15.5625 12.75 15.5625C13.4023 15.5625 13.6828 15.3766 14.1047 15.0938C14.6281 14.7445 15.2766 14.3125 16.5 14.3125C16.7486 14.3125 16.9871 14.4113 17.1629 14.5871C17.3387 14.7629 17.4375 15.0014 17.4375 15.25Z"
				fill="#475367" />
		</symbol>

		<symbol width="14" height="20" viewBox="0 0 14 20" fill="none" id="bar"
			xmlns="http://www.w3.org/2000/svg">
			<path
				d="M13.3415 7.38594L11.64 1.61016C11.5828 1.41612 11.4645 1.24576 11.3025 1.12453C11.1406 1.0033 10.9438 0.937689 10.7415 0.9375H3.25873C3.05645 0.937689 2.85966 1.0033 2.69773 1.12453C2.53581 1.24576 2.41743 1.41612 2.36029 1.61016L0.658729 7.38594C0.375499 8.3268 0.360968 9.32811 0.616777 10.2768C0.872585 11.2255 1.38854 12.0838 2.10638 12.7547C3.19665 13.7772 4.58052 14.4314 6.06263 14.625V17.1875H3.87513C3.62649 17.1875 3.38804 17.2863 3.21222 17.4621C3.03641 17.6379 2.93763 17.8764 2.93763 18.125C2.93763 18.3736 3.03641 18.6121 3.21222 18.7879C3.38804 18.9637 3.62649 19.0625 3.87513 19.0625H10.1251C10.3738 19.0625 10.6122 18.9637 10.788 18.7879C10.9639 18.6121 11.0626 18.3736 11.0626 18.125C11.0626 17.8764 10.9639 17.6379 10.788 17.4621C10.6122 17.2863 10.3738 17.1875 10.1251 17.1875H7.93763V14.625C9.42002 14.4315 10.8042 13.7773 11.8947 12.7547C12.6124 12.0837 13.1282 11.2254 13.3839 10.2767C13.6395 9.328 13.6249 8.32673 13.3415 7.38594ZM3.95951 2.8125H10.0408L11.4767 7.68828C10.6267 7.90703 9.28529 7.92266 7.42357 6.97578C5.64701 6.07656 4.18138 5.85938 3.03451 5.95469L3.95951 2.8125ZM7.00013 12.8125C5.65768 12.8141 4.36517 12.3036 3.38607 11.3852C2.92888 10.9556 2.59935 10.408 2.43391 9.80287C2.26846 9.19775 2.27353 8.55867 2.44857 7.95625C3.8892 7.53984 5.46732 8.08594 6.57904 8.64922C7.48138 9.10625 8.93685 9.68672 10.5056 9.68672C10.8803 9.68775 11.2542 9.65243 11.622 9.58125C11.4836 10.2728 11.132 10.9037 10.6165 11.3852C9.63686 12.3042 8.3434 12.8147 7.00013 12.8125Z"
				fill="#475367" />
		</symbol>


		<symbol width="16" height="18" viewBox="0 0 16 18" fill="none"
			xmlns="http://www.w3.org/2000/svg" id="date">
			<path
				d="M14.25 2.1875H12.6875V1.875C12.6875 1.62636 12.5887 1.3879 12.4129 1.21209C12.2371 1.03627 11.9986 0.9375 11.75 0.9375C11.5014 0.9375 11.2629 1.03627 11.0871 1.21209C10.9113 1.3879 10.8125 1.62636 10.8125 1.875V2.1875H5.1875V1.875C5.1875 1.62636 5.08873 1.3879 4.91291 1.21209C4.7371 1.03627 4.49864 0.9375 4.25 0.9375C4.00136 0.9375 3.7629 1.03627 3.58709 1.21209C3.41127 1.3879 3.3125 1.62636 3.3125 1.875V2.1875H1.75C1.3356 2.1875 0.938171 2.35212 0.645146 2.64515C0.35212 2.93817 0.1875 3.3356 0.1875 3.75V16.25C0.1875 16.6644 0.35212 17.0618 0.645146 17.3549C0.938171 17.6479 1.3356 17.8125 1.75 17.8125H14.25C14.6644 17.8125 15.0618 17.6479 15.3549 17.3549C15.6479 17.0618 15.8125 16.6644 15.8125 16.25V3.75C15.8125 3.3356 15.6479 2.93817 15.3549 2.64515C15.0618 2.35212 14.6644 2.1875 14.25 2.1875ZM3.3125 4.0625C3.3125 4.31114 3.41127 4.5496 3.58709 4.72541C3.7629 4.90123 4.00136 5 4.25 5C4.49864 5 4.7371 4.90123 4.91291 4.72541C5.08873 4.5496 5.1875 4.31114 5.1875 4.0625H10.8125C10.8125 4.31114 10.9113 4.5496 11.0871 4.72541C11.2629 4.90123 11.5014 5 11.75 5C11.9986 5 12.2371 4.90123 12.4129 4.72541C12.5887 4.5496 12.6875 4.31114 12.6875 4.0625H13.9375V5.9375H2.0625V4.0625H3.3125ZM2.0625 15.9375V7.8125H13.9375V15.9375H2.0625Z"
				fill="#475367" />
		</symbol>

		<symbol width="26" height="26" viewBox="0 0 26 26" fill="none"
			xmlns="http://www.w3.org/2000/svg" id="swipel">
			<path
				d="M13 26C15.5712 26 18.0846 25.2376 20.2224 23.8091C22.3602 22.3806 24.0265 20.3503 25.0104 17.9749C25.9944 15.5994 26.2518 12.9856 25.7502 10.4638C25.2486 7.94207 24.0105 5.62569 22.1924 3.80761C20.3743 1.98953 18.0579 0.7514 15.5362 0.249792C13.0144 -0.251816 10.4005 0.00562668 8.02511 0.989567C5.64967 1.97351 3.61935 3.63975 2.19089 5.77759C0.76243 7.91543 -5.72205e-06 10.4288 -5.72205e-06 13C0.0036335 16.4467 1.37444 19.7512 3.81163 22.1884C6.24881 24.6256 9.5533 25.9964 13 26ZM9.29249 12.2925L14.2925 7.2925C14.3854 7.19959 14.4957 7.12589 14.6171 7.07561C14.7385 7.02532 14.8686 6.99944 15 6.99944C15.1314 6.99944 15.2615 7.02532 15.3829 7.07561C15.5043 7.12589 15.6146 7.19959 15.7075 7.2925C15.8004 7.38541 15.8741 7.49571 15.9244 7.6171C15.9747 7.7385 16.0006 7.8686 16.0006 8C16.0006 8.1314 15.9747 8.2615 15.9244 8.3829C15.8741 8.50429 15.8004 8.61459 15.7075 8.7075L11.4137 13L15.7075 17.2925C15.8951 17.4801 16.0006 17.7346 16.0006 18C16.0006 18.2654 15.8951 18.5199 15.7075 18.7075C15.5199 18.8951 15.2654 19.0006 15 19.0006C14.7346 19.0006 14.4801 18.8951 14.2925 18.7075L9.29249 13.7075C9.19952 13.6146 9.12576 13.5043 9.07543 13.3829C9.02511 13.2615 8.99921 13.1314 8.99921 13C8.99921 12.8686 9.02511 12.7385 9.07543 12.6171C9.12576 12.4957 9.19952 12.3854 9.29249 12.2925Z"
				fill="#F9FAFB" />
		</symbol>

		<symbol width="26" height="26" viewBox="0 0 26 26" fill="none"
			xmlns="http://www.w3.org/2000/svg" id="swiper">
			<path
				d="M13 0C10.4288 0 7.91543 0.762437 5.77759 2.1909C3.63975 3.61935 1.97351 5.64968 0.989572 8.02512C0.0056327 10.4006 -0.251811 13.0144 0.249797 15.5362C0.751405 18.0579 1.98953 20.3743 3.80762 22.1924C5.6257 24.0105 7.94208 25.2486 10.4638 25.7502C12.9856 26.2518 15.5995 25.9944 17.9749 25.0104C20.3503 24.0265 22.3807 22.3603 23.8091 20.2224C25.2376 18.0846 26 15.5712 26 13C25.9964 9.5533 24.6256 6.24882 22.1884 3.81163C19.7512 1.37445 16.4467 0.00363977 13 0ZM16.7075 13.7075L11.7075 18.7075C11.6146 18.8004 11.5043 18.8741 11.3829 18.9244C11.2615 18.9747 11.1314 19.0006 11 19.0006C10.8686 19.0006 10.7385 18.9747 10.6171 18.9244C10.4957 18.8741 10.3854 18.8004 10.2925 18.7075C10.1996 18.6146 10.1259 18.5043 10.0756 18.3829C10.0253 18.2615 9.99945 18.1314 9.99945 18C9.99945 17.8686 10.0253 17.7385 10.0756 17.6171C10.1259 17.4957 10.1996 17.3854 10.2925 17.2925L14.5863 13L10.2925 8.7075C10.1049 8.51986 9.99945 8.26536 9.99945 8C9.99945 7.73464 10.1049 7.48014 10.2925 7.2925C10.4801 7.10486 10.7346 6.99944 11 6.99944C11.2654 6.99944 11.5199 7.10486 11.7075 7.2925L16.7075 12.2925C16.8005 12.3854 16.8742 12.4957 16.9246 12.6171C16.9749 12.7385 17.0008 12.8686 17.0008 13C17.0008 13.1314 16.9749 13.2615 16.9246 13.3829C16.8742 13.5043 16.8005 13.6146 16.7075 13.7075Z"
				fill="#F9FAFB" />
		</symbol>

		<symbol width="22" height="16" viewBox="0 0 22 16" fill="none" id="activity"
			xmlns="http://www.w3.org/2000/svg">
			<path
				d="M21.3018 14.9806C21.0417 15.1268 20.7342 15.1637 20.4469 15.0832C20.1597 15.0027 19.9161 14.8113 19.7699 14.5513L13.3443 3.125H12.1256V3.5C12.1256 3.79837 12.007 4.08452 11.796 4.2955C11.5851 4.50647 11.2989 4.625 11.0006 4.625C10.7022 4.625 10.416 4.50647 10.2051 4.2955C9.99408 4.08452 9.87555 3.79837 9.87555 3.5V3.125H8.6568L2.23118 14.5513C2.15961 14.6816 2.06292 14.7964 1.9467 14.8891C1.83048 14.9818 1.69704 15.0506 1.55408 15.0914C1.41113 15.1322 1.2615 15.1443 1.11385 15.127C0.96619 15.1096 0.823438 15.0632 0.69384 14.9903C0.564243 14.9175 0.450371 14.8197 0.358806 14.7025C0.267241 14.5854 0.1998 14.4513 0.160382 14.308C0.120963 14.1646 0.110348 14.0149 0.129151 13.8674C0.147954 13.7199 0.195801 13.5776 0.269928 13.4487L6.0768 3.125H1.25055C0.952184 3.125 0.666036 3.00647 0.455058 2.7955C0.244079 2.58452 0.125553 2.29837 0.125553 2C0.125553 1.70163 0.244079 1.41548 0.455058 1.2045C0.666036 0.993526 0.952184 0.875 1.25055 0.875H20.7506C21.0489 0.875 21.3351 0.993526 21.546 1.2045C21.757 1.41548 21.8756 1.70163 21.8756 2C21.8756 2.29837 21.757 2.58452 21.546 2.7955C21.3351 3.00647 21.0489 3.125 20.7506 3.125H15.9243L21.7312 13.4487C21.8774 13.7088 21.9143 14.0163 21.8337 14.3036C21.7532 14.5909 21.5619 14.8344 21.3018 14.9806ZM11.0006 6.125C10.7022 6.125 10.416 6.24353 10.2051 6.4545C9.99408 6.66548 9.87555 6.95163 9.87555 7.25V8.75C9.87555 9.04837 9.99408 9.33452 10.2051 9.54549C10.416 9.75647 10.7022 9.875 11.0006 9.875C11.2989 9.875 11.5851 9.75647 11.796 9.54549C12.007 9.33452 12.1256 9.04837 12.1256 8.75V7.25C12.1256 6.95163 12.007 6.66548 11.796 6.4545C11.5851 6.24353 11.2989 6.125 11.0006 6.125ZM11.0006 11.375C10.7022 11.375 10.416 11.4935 10.2051 11.7045C9.99408 11.9155 9.87555 12.2016 9.87555 12.5V14C9.87555 14.2984 9.99408 14.5845 10.2051 14.7955C10.416 15.0065 10.7022 15.125 11.0006 15.125C11.2989 15.125 11.5851 15.0065 11.796 14.7955C12.007 14.5845 12.1256 14.2984 12.1256 14V12.5C12.1256 12.2016 12.007 11.9155 11.796 11.7045C11.5851 11.4935 11.2989 11.375 11.0006 11.375Z"
				fill="#F9FAFB" />
		</symbol>

		<symbol width="18" height="18" viewBox="0 0 18 18" fill="none" id="clock"
			xmlns="http://www.w3.org/2000/svg">
			<path
				d="M9 1.40625C7.4981 1.40625 6.02993 1.85162 4.78114 2.68603C3.53236 3.52044 2.55905 4.70642 1.98429 6.094C1.40954 7.48157 1.25916 9.00842 1.55217 10.4815C1.84517 11.9545 2.56841 13.3076 3.63041 14.3696C4.69242 15.4316 6.04549 16.1548 7.51854 16.4478C8.99158 16.7408 10.5184 16.5905 11.906 16.0157C13.2936 15.441 14.4796 14.4676 15.314 13.2189C16.1484 11.9701 16.5938 10.5019 16.5938 9C16.5915 6.9867 15.7907 5.0565 14.3671 3.63287C12.9435 2.20925 11.0133 1.40848 9 1.40625ZM9 14.9062C7.83186 14.9062 6.68994 14.5599 5.71867 13.9109C4.74739 13.2619 3.99037 12.3394 3.54334 11.2602C3.09631 10.181 2.97935 8.99345 3.20724 7.84775C3.43513 6.70205 3.99765 5.64965 4.82365 4.82365C5.64966 3.99765 6.70205 3.43513 7.84775 3.20724C8.99345 2.97934 10.181 3.09631 11.2602 3.54334C12.3395 3.99037 13.2619 4.74739 13.9109 5.71866C14.5599 6.68994 14.9063 7.83185 14.9063 9C14.9046 10.5659 14.2818 12.0672 13.1745 13.1745C12.0672 14.2818 10.5659 14.9046 9 14.9062ZM13.7813 9C13.7813 9.22378 13.6924 9.43839 13.5341 9.59662C13.3759 9.75486 13.1613 9.84375 12.9375 9.84375H9C8.77623 9.84375 8.56162 9.75486 8.40338 9.59662C8.24515 9.43839 8.15625 9.22378 8.15625 9V5.0625C8.15625 4.83872 8.24515 4.62411 8.40338 4.46588C8.56162 4.30764 8.77623 4.21875 9 4.21875C9.22378 4.21875 9.43839 4.30764 9.59662 4.46588C9.75486 4.62411 9.84375 4.83872 9.84375 5.0625V8.15625H12.9375C13.1613 8.15625 13.3759 8.24514 13.5341 8.40338C13.6924 8.56161 13.7813 8.77622 13.7813 9Z"
				fill="#344054" />
		</symbol>

	</defs>
</svg>